<svg xmlns="http://www.w3.org/2000/svg" viewBox="0 0 576 576"><defs><style>.cls-1,.cls-2{fill:#78bd9b;}.cls-2{font-size:63.17px;font-family:FuturaStd-Bold, Futura Std;font-weight:700;}</style></defs><title>gusanologo</title><g id="Layer_3" data-name="Layer 3"><path class="cls-1" d="M300.26,348,324,360l-25.11,9.2a32,32,0,0,1-22.15,0L252,360l23.38-11.94A27.51,27.51,0,0,1,300.26,348Z"/><path class="cls-1" d="M284.54,378.27l-28.25-11.36a11.38,11.38,0,0,0-9.33.39l-8.64,4.33,10.6,5.32a12.29,12.29,0,0,0,5.55,1.32Z"/><path class="cls-1" d="M291.29,378.27l28.24-11.36a11.4,11.4,0,0,1,9.34.39l8.63,4.33L326.9,377a12.28,12.28,0,0,1-5.54,1.32Z"/><path class="cls-1" d="M277.1,394.3,252,384.53l32.7-3.42a33.08,33.08,0,0,1,6.6,0l32.7,3.42-25.1,9.77A30,30,0,0,1,277.1,394.3Z"/><path class="cls-1" d="M307.27,346.09l23.54,14A19.72,19.72,0,0,0,355,357l6.76-6.92-8.86-6a24.25,24.25,0,0,0-18.46-3.63Z"/><path class="cls-1" d="M269.12,346.09l-23.54,14A19.72,19.72,0,0,1,221.36,357l-6.76-6.92,8.86-6a24.25,24.25,0,0,1,18.46-3.63Z"/><path class="cls-1" d="M291.32,335.7l3.65,2.65A27.73,27.73,0,0,0,314.71,342l30.8-5.87-32.07-9.83a14.63,14.63,0,0,0-13.69,2.78Z"/><path class="cls-1" d="M284.68,335.7l-3.61,2.65A27.72,27.72,0,0,1,261.33,342l-30.79-5.87,32.07-9.83a14.6,14.6,0,0,1,13.68,2.78Z"/><path class="cls-1" d="M280.75,314.4l-9,8.88,7.92,4.84a16,16,0,0,0,16.68,0l7.92-4.84-9-8.88A10.33,10.33,0,0,0,280.75,314.4Z"/><path class="cls-1" d="M369.72,330.3l3.09-9.77-8.49-3.36a41.06,41.06,0,0,0-24.81-1.75L314,321.61l41.29,15.69A11,11,0,0,0,369.72,330.3Z"/><path class="cls-1" d="M205.34,330.3l-3.09-9.77,8.49-3.36a41.06,41.06,0,0,1,24.81-1.75l25.55,6.19L219.8,337.3A11.05,11.05,0,0,1,205.34,330.3Z"/><path class="cls-1" d="M289,301.3l10.79,10.62a18.43,18.43,0,0,0,16.95,4.85l29.77-6.64L315.38,295.5a18.74,18.74,0,0,0-17.16.62Z"/><path class="cls-1" d="M286.36,301.3l-10.79,10.62a18.42,18.42,0,0,1-16.95,4.85l-29.76-6.64L260,295.5a18.72,18.72,0,0,1,17.15.62Z"/><path class="cls-1" d="M372.93,313.33l1.78-14.57a16.37,16.37,0,0,0-18-18.27L333.87,283A107.36,107.36,0,0,0,314.5,287h0a.71.71,0,0,0-.08,1.32l57.52,25.61A.7.7,0,0,0,372.93,313.33Z"/><path class="cls-1" d="M203.17,313.33l-1.79-14.57a16.38,16.38,0,0,1,18-18.27L242.23,283A107.53,107.53,0,0,1,261.6,287h0a.71.71,0,0,1,.08,1.32l-57.53,25.61A.69.69,0,0,1,203.17,313.33Z"/><path class="cls-1" d="M291.2,292.93,308,288.09l-14.61-7.28a11.7,11.7,0,0,0-10.34-.05L268.15,288,285.76,293A9.86,9.86,0,0,0,291.2,292.93Z"/><ellipse class="cls-1" cx="286.66" cy="207.18" rx="19.9" ry="50.13"/><polyline class="cls-1" points="303.28 179.59 286.71 105.44 270.14 179.59"/><path class="cls-1" d="M224.93,274.82c50.74,9.46-60-110.41-60-110.41S175.11,265.53,224.93,274.82Z"/><path class="cls-1" d="M353.07,274.82C302.33,284.28,413,164.41,413,164.41S402.89,265.53,353.07,274.82Z"/><path class="cls-1" d="M264,274.48c15.42,14.57-42.69-157.86-42.69-157.86S228,240.48,264,274.48Z"/><path class="cls-1" d="M307.14,274.48c-15.42,14.57,42.69-157.86,42.69-157.86S343.15,240.48,307.14,274.48Z"/><text class="cls-2" transform="translate(167.18 456.97)">gusano</text></g></svg>