<svg xmlns="http://www.w3.org/2000/svg" xmlns:xlink="http://www.w3.org/1999/xlink" viewBox="0 0 1224 792"><defs><style>.cls-1,.cls-4,.cls-6{fill:none;}.cls-12,.cls-2{fill:#77bd9c;}.cls-14,.cls-3{fill:#ef414d;opacity:0.85;}.cls-4{stroke:#77bd9c;}.cls-4,.cls-6{stroke-miterlimit:10;}.cls-19,.cls-5{fill:#91cd8e;}.cls-6{stroke:#231f20;opacity:0.1;}.cls-7{clip-path:url(#clip-path);}.cls-8{opacity:0.8;}.cls-9{fill:#ef414e;}.cls-10{clip-path:url(#clip-path-2);}.cls-11{clip-path:url(#clip-path-3);}.cls-12{font-size:16px;}.cls-12,.cls-14,.cls-17,.cls-19{font-family:FuturaStd-Bold, Futura Std;}.cls-12,.cls-15{font-weight:700;}.cls-13{font-size:8px;fill:#231f20;font-family:FuturaStd-Book, Futura Std;letter-spacing:0.02em;}.cls-14,.cls-17,.cls-19{font-size:12px;}.cls-14{letter-spacing:0.04em;}.cls-16,.cls-18{font-size:10px;font-family:FuturaStd-Condensed, Futura Std;}.cls-16{letter-spacing:0.03em;}.cls-17{fill:#9cafc8;letter-spacing:0.03em;}.cls-18{letter-spacing:0.03em;}.cls-19{letter-spacing:0.05em;}</style><clipPath id="clip-path"><rect class="cls-1" x="36" y="72" width="360" height="72.35"/></clipPath><clipPath id="clip-path-2"><rect class="cls-1" x="431.9" y="72" width="360" height="72.35"/></clipPath><clipPath id="clip-path-3"><rect class="cls-1" x="827.81" y="72" width="360" height="72.35"/></clipPath></defs><title>containers</title><g id="Graphics"><path class="cls-2" d="M217.43,425.87l7.33,3.7L217,432.41a9.93,9.93,0,0,1-6.84,0l-7.63-2.83,7.21-3.69A8.48,8.48,0,0,1,217.43,425.87Z"/><path class="cls-2" d="M212.58,435.21l-8.72-3.51a3.53,3.53,0,0,0-2.88.12l-2.66,1.34,3.27,1.64a3.75,3.75,0,0,0,1.71.41Z"/><path class="cls-2" d="M214.66,435.21l8.72-3.51a3.53,3.53,0,0,1,2.88.12l2.67,1.34-3.27,1.64a3.79,3.79,0,0,1-1.72.41Z"/><path class="cls-2" d="M210.28,440.15l-7.74-3,10.09-1.06a9.93,9.93,0,0,1,2,0l10.09,1.06-7.75,3A9.2,9.2,0,0,1,210.28,440.15Z"/><path class="cls-2" d="M219.6,425.27l7.26,4.34a6.09,6.09,0,0,0,7.48-1l2.09-2.13-2.74-1.84a7.46,7.46,0,0,0-5.7-1.12Z"/><path class="cls-2" d="M207.82,425.27l-7.26,4.34a6.09,6.09,0,0,1-7.48-1L191,426.5l2.74-1.84a7.45,7.45,0,0,1,5.7-1.12Z"/><path class="cls-2" d="M214.67,422.07l1.13.81a8.51,8.51,0,0,0,6.09,1.13l9.51-1.82-9.9-3a4.48,4.48,0,0,0-4.22.86Z"/><path class="cls-2" d="M212.62,422.07l-1.11.81a8.51,8.51,0,0,1-6.09,1.13l-9.51-1.82,9.9-3A4.48,4.48,0,0,1,210,420Z"/><path class="cls-2" d="M211.41,415.49l-2.78,2.74,2.44,1.5a5,5,0,0,0,5.15,0l2.45-1.5-2.78-2.74A3.2,3.2,0,0,0,211.41,415.49Z"/><path class="cls-2" d="M238.87,420.4l1-3-2.62-1a12.63,12.63,0,0,0-7.66-.54l-7.89,1.91,12.75,4.84A3.4,3.4,0,0,0,238.87,420.4Z"/><path class="cls-2" d="M188.14,420.4l-1-3,2.62-1a12.63,12.63,0,0,1,7.66-.54l7.89,1.91-12.75,4.84A3.4,3.4,0,0,1,188.14,420.4Z"/><path class="cls-2" d="M214,411.45l3.33,3.28a5.71,5.71,0,0,0,5.23,1.5l9.19-2.06-9.61-4.51a5.77,5.77,0,0,0-5.3.19Z"/><path class="cls-2" d="M213.14,411.45l-3.33,3.28a5.7,5.7,0,0,1-5.23,1.5l-9.19-2.06,9.61-4.51a5.77,5.77,0,0,1,5.3.19Z"/><path class="cls-2" d="M239.86,415.16l.55-4.49a5,5,0,0,0-5.56-5.64l-7,.77a32.87,32.87,0,0,0-6,1.22h0a.22.22,0,0,0,0,.41l17.76,7.9A.21.21,0,0,0,239.86,415.16Z"/><path class="cls-2" d="M187.46,415.16l-.55-4.49a5.06,5.06,0,0,1,5.57-5.64l7,.77a32.87,32.87,0,0,1,6,1.22h0a.22.22,0,0,1,0,.41l-17.75,7.9A.22.22,0,0,1,187.46,415.16Z"/><path class="cls-2" d="M214.64,408.87l5.17-1.5-4.51-2.25a3.63,3.63,0,0,0-3.2,0l-4.58,2.23,5.44,1.53A3.09,3.09,0,0,0,214.64,408.87Z"/><ellipse class="cls-2" cx="213.24" cy="382.4" rx="6.14" ry="15.47"/><polyline class="cls-2" points="218.37 373.88 213.25 351 208.14 373.88"/><path class="cls-2" d="M194.18,403.28c15.66,2.92-18.5-34.08-18.5-34.08S178.8,400.41,194.18,403.28Z"/><path class="cls-2" d="M233.73,403.28c-15.66,2.92,18.51-34.08,18.51-34.08S249.11,400.41,233.73,403.28Z"/><path class="cls-2" d="M206.25,403.17c4.76,4.5-13.18-48.72-13.18-48.72S195.13,392.68,206.25,403.17Z"/><path class="cls-2" d="M219.56,403.17c-4.76,4.5,13.17-48.72,13.17-48.72S230.67,392.68,219.56,403.17Z"/><path class="cls-2" d="M616.43,425.87l7.33,3.7L616,432.41a9.93,9.93,0,0,1-6.84,0l-7.63-2.83,7.21-3.69A8.48,8.48,0,0,1,616.43,425.87Z"/><path class="cls-2" d="M611.58,435.21l-8.72-3.51a3.53,3.53,0,0,0-2.88.12l-2.66,1.34,3.27,1.64a3.75,3.75,0,0,0,1.71.41Z"/><path class="cls-2" d="M613.66,435.21l8.72-3.51a3.53,3.53,0,0,1,2.88.12l2.67,1.34-3.27,1.64a3.79,3.79,0,0,1-1.72.41Z"/><path class="cls-2" d="M609.28,440.15l-7.74-3,10.09-1.06a9.93,9.93,0,0,1,2,0l10.09,1.06-7.75,3A9.2,9.2,0,0,1,609.28,440.15Z"/><path class="cls-2" d="M618.6,425.27l7.26,4.34a6.09,6.09,0,0,0,7.48-1l2.09-2.13-2.74-1.84a7.46,7.46,0,0,0-5.7-1.12Z"/><path class="cls-2" d="M606.82,425.27l-7.26,4.34a6.09,6.09,0,0,1-7.48-1L590,426.5l2.74-1.84a7.45,7.45,0,0,1,5.7-1.12Z"/><path class="cls-2" d="M613.67,422.07l1.13.81a8.51,8.51,0,0,0,6.09,1.13l9.51-1.82-9.9-3a4.48,4.48,0,0,0-4.22.86Z"/><path class="cls-2" d="M611.62,422.07l-1.11.81a8.51,8.51,0,0,1-6.09,1.13l-9.51-1.82,9.9-3A4.48,4.48,0,0,1,609,420Z"/><path class="cls-2" d="M610.41,415.49l-2.78,2.74,2.44,1.5a5,5,0,0,0,5.15,0l2.45-1.5-2.78-2.74A3.2,3.2,0,0,0,610.41,415.49Z"/><path class="cls-2" d="M637.87,420.4l1-3-2.62-1a12.63,12.63,0,0,0-7.66-.54l-7.89,1.91,12.75,4.84A3.4,3.4,0,0,0,637.87,420.4Z"/><path class="cls-2" d="M587.14,420.4l-1-3,2.62-1a12.63,12.63,0,0,1,7.66-.54l7.89,1.91-12.75,4.84A3.4,3.4,0,0,1,587.14,420.4Z"/><path class="cls-2" d="M613,411.45l3.33,3.28a5.71,5.71,0,0,0,5.23,1.5l9.19-2.06-9.61-4.51a5.77,5.77,0,0,0-5.3.19Z"/><path class="cls-2" d="M612.14,411.45l-3.33,3.28a5.7,5.7,0,0,1-5.23,1.5l-9.19-2.06,9.61-4.51a5.77,5.77,0,0,1,5.3.19Z"/><path class="cls-2" d="M638.86,415.16l.55-4.49a5,5,0,0,0-5.56-5.64l-7,.77a32.87,32.87,0,0,0-6,1.22h0a.22.22,0,0,0,0,.41l17.76,7.9A.21.21,0,0,0,638.86,415.16Z"/><path class="cls-2" d="M586.46,415.16l-.55-4.49a5.06,5.06,0,0,1,5.57-5.64l7,.77a32.87,32.87,0,0,1,6,1.22h0a.22.22,0,0,1,0,.41l-17.75,7.9A.22.22,0,0,1,586.46,415.16Z"/><path class="cls-2" d="M613.64,408.87l5.17-1.5-4.51-2.25a3.63,3.63,0,0,0-3.2,0l-4.58,2.23,5.44,1.53A3.09,3.09,0,0,0,613.64,408.87Z"/><ellipse class="cls-2" cx="612.24" cy="382.4" rx="6.14" ry="15.47"/><polyline class="cls-2" points="617.37 373.88 612.25 351 607.14 373.88"/><path class="cls-2" d="M593.18,403.28c15.66,2.92-18.5-34.08-18.5-34.08S577.8,400.41,593.18,403.28Z"/><path class="cls-2" d="M632.73,403.28c-15.66,2.92,18.51-34.08,18.51-34.08S648.11,400.41,632.73,403.28Z"/><path class="cls-2" d="M605.25,403.17c4.76,4.5-13.18-48.72-13.18-48.72S594.13,392.68,605.25,403.17Z"/><path class="cls-2" d="M618.56,403.17c-4.76,4.5,13.17-48.72,13.17-48.72S629.67,392.68,618.56,403.17Z"/><path class="cls-2" d="M1015.43,425.87l7.33,3.7-7.75,2.84a9.93,9.93,0,0,1-6.84,0l-7.63-2.83,7.21-3.69A8.48,8.48,0,0,1,1015.43,425.87Z"/><path class="cls-2" d="M1010.58,435.21l-8.72-3.51a3.53,3.53,0,0,0-2.88.12l-2.66,1.34,3.27,1.64a3.75,3.75,0,0,0,1.71.41Z"/><path class="cls-2" d="M1012.66,435.21l8.72-3.51a3.53,3.53,0,0,1,2.88.12l2.67,1.34-3.27,1.64a3.79,3.79,0,0,1-1.72.41Z"/><path class="cls-2" d="M1008.28,440.15l-7.74-3,10.09-1.06a9.93,9.93,0,0,1,2,0l10.09,1.06-7.75,3A9.2,9.2,0,0,1,1008.28,440.15Z"/><path class="cls-2" d="M1017.6,425.27l7.26,4.34a6.09,6.09,0,0,0,7.48-1l2.09-2.13-2.74-1.84a7.46,7.46,0,0,0-5.7-1.12Z"/><path class="cls-2" d="M1005.82,425.27l-7.26,4.34a6.09,6.09,0,0,1-7.48-1L989,426.5l2.74-1.84a7.45,7.45,0,0,1,5.7-1.12Z"/><path class="cls-2" d="M1012.67,422.07l1.13.81a8.51,8.51,0,0,0,6.09,1.13l9.51-1.82-9.9-3a4.48,4.48,0,0,0-4.22.86Z"/><path class="cls-2" d="M1010.62,422.07l-1.11.81a8.51,8.51,0,0,1-6.09,1.13l-9.51-1.82,9.9-3a4.48,4.48,0,0,1,4.22.86Z"/><path class="cls-2" d="M1009.41,415.49l-2.78,2.74,2.44,1.5a5,5,0,0,0,5.15,0l2.45-1.5-2.78-2.74A3.2,3.2,0,0,0,1009.41,415.49Z"/><path class="cls-2" d="M1036.87,420.4l1-3-2.62-1a12.63,12.63,0,0,0-7.66-.54l-7.89,1.91,12.75,4.84A3.4,3.4,0,0,0,1036.87,420.4Z"/><path class="cls-2" d="M986.14,420.4l-1-3,2.62-1a12.63,12.63,0,0,1,7.66-.54l7.89,1.91-12.75,4.84A3.4,3.4,0,0,1,986.14,420.4Z"/><path class="cls-2" d="M1012,411.45l3.33,3.28a5.71,5.71,0,0,0,5.23,1.5l9.19-2.06-9.61-4.51a5.77,5.77,0,0,0-5.3.19Z"/><path class="cls-2" d="M1011.14,411.45l-3.33,3.28a5.7,5.7,0,0,1-5.23,1.5l-9.19-2.06,9.61-4.51a5.77,5.77,0,0,1,5.3.19Z"/><path class="cls-2" d="M1037.86,415.16l.55-4.49a5,5,0,0,0-5.56-5.64l-7,.77a32.87,32.87,0,0,0-6,1.22h0a.22.22,0,0,0,0,.41l17.76,7.9A.21.21,0,0,0,1037.86,415.16Z"/><path class="cls-2" d="M985.46,415.16l-.55-4.49a5.06,5.06,0,0,1,5.57-5.64l7,.77a32.87,32.87,0,0,1,6,1.22h0a.22.22,0,0,1,0,.41l-17.75,7.9A.22.22,0,0,1,985.46,415.16Z"/><path class="cls-2" d="M1012.64,408.87l5.17-1.5-4.51-2.25a3.63,3.63,0,0,0-3.2,0l-4.58,2.23,5.44,1.53A3.09,3.09,0,0,0,1012.64,408.87Z"/><ellipse class="cls-2" cx="1011.24" cy="382.4" rx="6.14" ry="15.47"/><polyline class="cls-2" points="1016.37 373.88 1011.25 351 1006.14 373.88"/><path class="cls-2" d="M992.18,403.28c15.66,2.92-18.5-34.08-18.5-34.08S976.8,400.41,992.18,403.28Z"/><path class="cls-2" d="M1031.73,403.28c-15.66,2.92,18.51-34.08,18.51-34.08S1047.11,400.41,1031.73,403.28Z"/><path class="cls-2" d="M1004.25,403.17c4.76,4.5-13.18-48.72-13.18-48.72S993.13,392.68,1004.25,403.17Z"/><path class="cls-2" d="M1017.56,403.17c-4.76,4.5,13.17-48.72,13.17-48.72S1028.67,392.68,1017.56,403.17Z"/><rect class="cls-3" x="54" y="630" width="144" height="144"/><rect class="cls-3" x="240.32" y="630" width="144" height="144" rx="72" ry="72"/><rect class="cls-4" x="454.53" y="630" width="144" height="144"/><rect class="cls-4" x="625.18" y="630" width="144" height="144" rx="72" ry="72"/><rect class="cls-5" x="846.13" y="630" width="144" height="144"/><rect class="cls-5" x="1024.99" y="630" width="144" height="144" rx="72" ry="72"/></g><g id="Template"><rect class="cls-6" x="36" y="216" width="360" height="360"/><rect class="cls-6" x="432" y="216" width="360" height="360"/><rect class="cls-6" x="828" y="216" width="360" height="360"/><g class="cls-7"><g class="cls-8"><path class="cls-9" d="M381.81,41.81l-2.38-1.73a18.1,18.1,0,0,0-12.89-2.37l-20.1,3.84L367.37,48a9.55,9.55,0,0,0,8.94-1.81Z"/><path class="cls-9" d="M386.14,41.81l2.36-1.73a18.09,18.09,0,0,1,12.89-2.37l20.1,3.84L400.55,48a9.53,9.53,0,0,1-8.93-1.81Z"/><path class="cls-9" d="M381.83,148.88l-2.39-1.73a18.08,18.08,0,0,0-12.88-2.38l-20.11,3.84L367.39,155a9.53,9.53,0,0,0,8.93-1.81Z"/><path class="cls-9" d="M386.16,148.88l2.35-1.73a18.11,18.11,0,0,1,12.89-2.38l20.11,3.84L400.57,155a9.53,9.53,0,0,1-8.93-1.81Z"/><path class="cls-9" d="M388.71,55.72l5.89-5.8-5.18-3.16a10.41,10.41,0,0,0-10.89,0l-5.17,3.16,5.89,5.8A6.75,6.75,0,0,0,388.71,55.72Z"/><path class="cls-9" d="M383.33,64.27l-7.05-6.94a12.05,12.05,0,0,0-11.07-3.16L345.78,58.5l20.33,9.56a12.22,12.22,0,0,0,11.19-.41Z"/><path class="cls-9" d="M385.05,64.27l7-6.94a12.06,12.06,0,0,1,11.07-3.16l19.43,4.33-20.33,9.56a12.22,12.22,0,0,1-11.19-.41Z"/><path class="cls-9" d="M388.5,163.21l5.89-5.79-5.17-3.17a10.45,10.45,0,0,0-10.89,0l-5.18,3.17,5.89,5.79A6.73,6.73,0,0,0,388.5,163.21Z"/><path class="cls-9" d="M383.12,171.76l-7.05-6.93A12,12,0,0,0,365,161.66L345.58,166l20.32,9.55a12.27,12.27,0,0,0,11.2-.4Z"/><path class="cls-9" d="M384.84,171.76l7.05-6.93A12,12,0,0,1,403,161.66L422.38,166l-20.32,9.55a12.27,12.27,0,0,1-11.2-.4Z"/><path class="cls-9" d="M297.11,41.81l-2.39-1.73a18.07,18.07,0,0,0-12.88-2.37l-20.11,3.84L282.67,48a9.53,9.53,0,0,0,8.93-1.81Z"/><path class="cls-9" d="M301.44,41.81l2.36-1.73a18.07,18.07,0,0,1,12.88-2.37l20.11,3.84L315.85,48a9.53,9.53,0,0,1-8.93-1.81Z"/><path class="cls-9" d="M304,55.72l5.88-5.8-5.17-3.16a10.41,10.41,0,0,0-10.89,0l-5.17,3.16,5.88,5.8A6.76,6.76,0,0,0,304,55.72Z"/><path class="cls-9" d="M298.62,64.27l-7-6.94a12.06,12.06,0,0,0-11.07-3.16L261.08,58.5l20.32,9.56a12.24,12.24,0,0,0,11.2-.41Z"/><path class="cls-9" d="M300.34,64.27l7.05-6.94a12,12,0,0,1,11.06-3.16l19.44,4.33-20.33,9.56a12.24,12.24,0,0,1-11.2-.41Z"/><path class="cls-9" d="M213.21,41.81l-2.39-1.73a18.08,18.08,0,0,0-12.88-2.37l-20.11,3.84L198.77,48a9.53,9.53,0,0,0,8.93-1.81Z"/><path class="cls-9" d="M217.54,41.81l2.36-1.73a18.07,18.07,0,0,1,12.88-2.37l20.11,3.84L232,48A9.53,9.53,0,0,1,223,46.15Z"/><path class="cls-9" d="M220.11,55.72l5.88-5.8-5.17-3.16a10.41,10.41,0,0,0-10.89,0l-5.17,3.16,5.88,5.8A6.76,6.76,0,0,0,220.11,55.72Z"/><path class="cls-9" d="M214.72,64.27l-7.05-6.94a12,12,0,0,0-11.06-3.16L177.18,58.5l20.32,9.56a12.24,12.24,0,0,0,11.2-.41Z"/><path class="cls-9" d="M216.44,64.27l7.05-6.94a12,12,0,0,1,11.06-3.16L254,58.5l-20.32,9.56a12.24,12.24,0,0,1-11.2-.41Z"/><path class="cls-9" d="M346.25,45.08,366,50.25,345.91,55.1a19.15,19.15,0,0,1-9,0l-20.12-4.85,19.78-5.17A19.23,19.23,0,0,1,346.25,45.08Z"/><path class="cls-9" d="M262,45.08l19.78,5.17L261.61,55.1a19.15,19.15,0,0,1-9,0l-20.12-4.85,19.78-5.17A19.23,19.23,0,0,1,262,45.08Z"/><path class="cls-9" d="M178.35,44.8,198.13,50,178,54.82a19.15,19.15,0,0,1-9,0L148.92,50,168.7,44.8A19,19,0,0,1,178.35,44.8Z"/><path class="cls-9" d="M376,88.92l-15.5-7.83,16.39-6a21,21,0,0,1,14.46,0l16.15,6-15.26,7.8A17.94,17.94,0,0,1,376,88.92Z"/><path class="cls-9" d="M381.81,97l-2.38-1.73a18.1,18.1,0,0,0-12.89-2.37l-20.1,3.83,20.93,6.42a9.58,9.58,0,0,0,8.94-1.82Z"/><path class="cls-9" d="M386.14,97l2.36-1.73a18.09,18.09,0,0,1,12.89-2.37l20.1,3.83-20.94,6.42a9.56,9.56,0,0,1-8.93-1.82Z"/><path class="cls-9" d="M388.71,110.86l5.89-5.79-5.18-3.17a10.45,10.45,0,0,0-10.89,0l-5.17,3.17,5.89,5.79A6.73,6.73,0,0,0,388.71,110.86Z"/><path class="cls-9" d="M383.33,119.41l-7.05-6.93a12.06,12.06,0,0,0-11.07-3.17l-19.43,4.34,20.33,9.55a12.25,12.25,0,0,0,11.19-.4Z"/><path class="cls-9" d="M385.05,119.41l7-6.93a12.06,12.06,0,0,1,11.07-3.17l19.43,4.34-20.33,9.55a12.25,12.25,0,0,1-11.19-.4Z"/><path class="cls-9" d="M291.27,88.92l-15.5-7.83,16.4-6a21,21,0,0,1,14.46,0l16.15,6-15.27,7.8A17.94,17.94,0,0,1,291.27,88.92Z"/><path class="cls-9" d="M297.11,97l-2.39-1.73a18.07,18.07,0,0,0-12.88-2.37l-20.11,3.83,20.94,6.42a9.56,9.56,0,0,0,8.93-1.82Z"/><path class="cls-9" d="M301.44,97l2.36-1.73a18.07,18.07,0,0,1,12.88-2.37l20.11,3.83-20.94,6.42a9.56,9.56,0,0,1-8.93-1.82Z"/><path class="cls-9" d="M304,110.86l5.88-5.79-5.17-3.17a10.45,10.45,0,0,0-10.89,0l-5.17,3.17,5.88,5.79A6.74,6.74,0,0,0,304,110.86Z"/><path class="cls-9" d="M298.62,119.41l-7-6.93a12.06,12.06,0,0,0-11.07-3.17l-19.43,4.34,20.32,9.55a12.27,12.27,0,0,0,11.2-.4Z"/><path class="cls-9" d="M300.34,119.41l7.05-6.93a12,12,0,0,1,11.06-3.17l19.44,4.34-20.33,9.55a12.27,12.27,0,0,1-11.2-.4Z"/><path class="cls-9" d="M207.37,88.92l-15.5-7.83,16.4-6a21,21,0,0,1,14.46,0l16.15,6-15.27,7.8A17.94,17.94,0,0,1,207.37,88.92Z"/><path class="cls-9" d="M213.21,97l-2.39-1.73a18.08,18.08,0,0,0-12.88-2.37l-20.11,3.83,20.94,6.42a9.56,9.56,0,0,0,8.93-1.82Z"/><path class="cls-9" d="M217.54,97l2.36-1.73a18.07,18.07,0,0,1,12.88-2.37l20.11,3.83L232,103.11a9.56,9.56,0,0,1-8.93-1.82Z"/><path class="cls-9" d="M220.11,110.86l5.88-5.79-5.17-3.17a10.45,10.45,0,0,0-10.89,0l-5.17,3.17,5.88,5.79A6.74,6.74,0,0,0,220.11,110.86Z"/><path class="cls-9" d="M214.72,119.41l-7.05-6.93a12,12,0,0,0-11.06-3.17l-19.43,4.34,20.32,9.55a12.27,12.27,0,0,0,11.2-.4Z"/><path class="cls-9" d="M216.44,119.41l7.05-6.93a12,12,0,0,1,11.06-3.17L254,113.65l-20.32,9.55a12.27,12.27,0,0,1-11.2-.4Z"/><path class="cls-9" d="M214.51,171.33l-7-6.93a12,12,0,0,0-11.07-3.17L177,165.57l20.33,9.55a12.22,12.22,0,0,0,11.19-.41Z"/><path class="cls-9" d="M216.23,171.33l7.05-6.93a12,12,0,0,1,11.07-3.17l19.43,4.34-20.33,9.55a12.22,12.22,0,0,1-11.19-.41Z"/><path class="cls-9" d="M346.46,100.79,366.23,106l-20.12,4.86a19.15,19.15,0,0,1-9,0L317,106l19.78-5.16A19,19,0,0,1,346.46,100.79Z"/><path class="cls-9" d="M262.15,100.79,281.93,106l-20.12,4.86a19.15,19.15,0,0,1-9,0L232.72,106l19.78-5.16A19,19,0,0,1,262.15,100.79Z"/><path class="cls-9" d="M369.74,89.89,352,93.48a11.91,11.91,0,0,1-8.68-1.56l-1.72-1.07,6.73-5.06a11,11,0,0,1,11.62-1Z"/><path class="cls-9" d="M313.51,89.89l17.71,3.59a11.94,11.94,0,0,0,8.69-1.56l1.72-1.07-6.74-5.06a10.94,10.94,0,0,0-11.62-1Z"/><path class="cls-9" d="M284.31,89.89,266.6,93.48a11.91,11.91,0,0,1-8.68-1.56l-1.72-1.07,6.73-5.06a11,11,0,0,1,11.62-1Z"/><path class="cls-9" d="M228.08,89.89l17.71,3.59a11.94,11.94,0,0,0,8.69-1.56l1.72-1.07-6.74-5.06a10.94,10.94,0,0,0-11.62-1Z"/><path class="cls-9" d="M366.23,72.73,350.7,80.49a20.74,20.74,0,0,1-18.55,0l-15.53-7.76,15.11-8a20.8,20.8,0,0,1,19.4,0Z"/><path class="cls-9" d="M281.93,72.73,266.4,80.49a20.74,20.74,0,0,1-18.55,0l-15.53-7.76,15.11-8a20.78,20.78,0,0,1,19.39,0Z"/><path class="cls-9" d="M179.48,100.86,199.26,106l-20.12,4.85a19.15,19.15,0,0,1-9,0L150.05,106l19.77-5.17A19.27,19.27,0,0,1,179.48,100.86Z"/><path class="cls-9" d="M201.64,90l-17.71,3.59A12,12,0,0,1,175.24,92l-1.71-1.07,6.73-5.06a11,11,0,0,1,11.62-1Z"/><path class="cls-9" d="M145.41,90l17.71,3.59A12,12,0,0,0,171.81,92l1.72-1.07-6.74-5.06a11,11,0,0,0-11.62-1Z"/><path class="cls-9" d="M199.26,72.8l-15.53,7.76a20.74,20.74,0,0,1-18.55,0L149.65,72.8l15.1-8a20.74,20.74,0,0,1,19.4,0Z"/><path class="cls-9" d="M291.27,142.11l-15.5-7.83,16.4-6a20.91,20.91,0,0,1,14.46,0l16.15,6-15.27,7.79A17.94,17.94,0,0,1,291.27,142.11Z"/><path class="cls-9" d="M375.32,140.84,359.82,133l16.4-6a20.85,20.85,0,0,1,14.46,0l16.15,6-15.27,7.79A17.91,17.91,0,0,1,375.32,140.84Z"/><path class="cls-9" d="M284.6,141.81l-17.71,3.59a11.94,11.94,0,0,1-8.69-1.56l-1.72-1.08,6.74-5a11,11,0,0,1,11.62-1Z"/><path class="cls-9" d="M208.35,140.84,192.85,133l16.39-6a20.85,20.85,0,0,1,14.46,0l16.15,6-15.26,7.79A17.91,17.91,0,0,1,208.35,140.84Z"/><path class="cls-9" d="M214.18,148.88l-2.38-1.73a18.11,18.11,0,0,0-12.89-2.38l-20.1,3.84L199.74,155a9.55,9.55,0,0,0,8.94-1.81Z"/><path class="cls-9" d="M218.51,148.88l2.36-1.73a18.11,18.11,0,0,1,12.89-2.38l20.1,3.84L232.93,155a9.55,9.55,0,0,1-8.94-1.81Z"/><path class="cls-9" d="M221.08,162.78,227,157l-5.18-3.16a10.45,10.45,0,0,0-10.89,0L205.73,157l5.89,5.8A6.75,6.75,0,0,0,221.08,162.78Z"/><path class="cls-9" d="M263.13,152.71l19.77,5.16-20.12,4.86a19.15,19.15,0,0,1-9,0l-20.11-4.86,19.77-5.16A19,19,0,0,1,263.13,152.71Z"/><path class="cls-9" d="M229.06,141.81l17.71,3.59a11.92,11.92,0,0,0,8.68-1.56l1.72-1.08-6.74-5a10.93,10.93,0,0,0-11.61-1Z"/><path class="cls-9" d="M281.93,126.91l-15.53,7.76a20.74,20.74,0,0,1-18.55,0l-15.53-7.76,15.11-8a20.72,20.72,0,0,1,19.39,0Z"/><path class="cls-9" d="M296.9,148.88l-2.38-1.73a18.11,18.11,0,0,0-12.89-2.38l-20.1,3.84L282.46,155a9.55,9.55,0,0,0,8.94-1.81Z"/><path class="cls-9" d="M369.51,141.81,351.8,145.4a11.94,11.94,0,0,1-8.69-1.56l-1.72-1.08,6.74-5a11,11,0,0,1,11.62-1Z"/><path class="cls-9" d="M301.23,148.88l2.36-1.73a18.1,18.1,0,0,1,12.89-2.38l20.1,3.84L315.64,155a9.53,9.53,0,0,1-8.93-1.81Z"/><path class="cls-9" d="M348,152.71l19.77,5.16-20.11,4.86a19.15,19.15,0,0,1-9,0l-20.12-4.86,19.77-5.16A19,19,0,0,1,348,152.71Z"/><path class="cls-9" d="M314,141.81l17.71,3.59a11.91,11.91,0,0,0,8.68-1.56l1.72-1.08-6.74-5a10.93,10.93,0,0,0-11.61-1Z"/><path class="cls-9" d="M366.84,126.91l-15.53,7.76a20.74,20.74,0,0,1-18.55,0l-15.53-7.76,15.11-8a20.72,20.72,0,0,1,19.39,0Z"/><path class="cls-9" d="M321.12,176.61,331.7,171a20.72,20.72,0,0,1,19.39,0l10.78,5.69"/><path class="cls-9" d="M237.05,176.61,247.63,171A20.72,20.72,0,0,1,267,171l10.58,5.59"/><path class="cls-9" d="M200.65,141.8l-17.71,3.59a12,12,0,0,1-8.68-1.57l-1.72-1.07,6.73-5.06a11,11,0,0,1,11.62-1Z"/><path class="cls-9" d="M179.18,152.69,199,157.86l-20.12,4.85a19.15,19.15,0,0,1-9,0l-20.12-4.85,19.77-5.17A19.27,19.27,0,0,1,179.18,152.69Z"/><path class="cls-9" d="M145.11,141.8l17.71,3.59a12,12,0,0,0,8.69-1.57l1.71-1.07-6.73-5.06a11,11,0,0,0-11.62-1Z"/><path class="cls-9" d="M198,126.89l-15.53,7.76a20.74,20.74,0,0,1-18.55,0l-15.53-7.76,15.11-8a20.74,20.74,0,0,1,19.4,0Z"/><path class="cls-9" d="M153.08,176.61l10.6-5.61a20.8,20.8,0,0,1,19.4,0l10.6,5.61"/><path class="cls-9" d="M303.8,162.78l5.88-5.8-5.17-3.16a10.45,10.45,0,0,0-10.89,0L288.45,157l5.89,5.8A6.75,6.75,0,0,0,303.8,162.78Z"/><path class="cls-9" d="M298.42,171.33l-7.05-6.93a12,12,0,0,0-11.07-3.17l-19.43,4.34,20.33,9.55a12.22,12.22,0,0,0,11.19-.41Z"/><path class="cls-9" d="M300.14,171.33l7-6.93a12,12,0,0,1,11.07-3.17l19.43,4.34-20.33,9.55a12.22,12.22,0,0,1-11.19-.41Z"/><path class="cls-9" d="M129.51,41.53l-2.39-1.73a18.07,18.07,0,0,0-12.88-2.37L94.13,41.26l20.94,6.42A9.53,9.53,0,0,0,124,45.87Z"/><path class="cls-9" d="M133.84,41.53l2.36-1.73a18.08,18.08,0,0,1,12.88-2.37l20.11,3.83-20.94,6.42a9.53,9.53,0,0,1-8.93-1.81Z"/><path class="cls-9" d="M129.53,148.59l-2.39-1.73a18.1,18.1,0,0,0-12.89-2.37l-20.1,3.84,20.93,6.41a9.55,9.55,0,0,0,8.94-1.81Z"/><path class="cls-9" d="M133.86,148.59l2.35-1.73a18.1,18.1,0,0,1,12.89-2.37l20.1,3.84-20.93,6.41a9.55,9.55,0,0,1-8.94-1.81Z"/><path class="cls-9" d="M136.41,55.43l5.88-5.79-5.17-3.16a10.41,10.41,0,0,0-10.89,0l-5.17,3.16,5.88,5.79A6.74,6.74,0,0,0,136.41,55.43Z"/><path class="cls-9" d="M131,64l-7-6.93a12.09,12.09,0,0,0-11.07-3.17L93.48,58.22l20.32,9.55a12.24,12.24,0,0,0,11.2-.4Z"/><path class="cls-9" d="M132.74,64l7-6.93a12.08,12.08,0,0,1,11.07-3.17l19.43,4.34L150,67.77a12.22,12.22,0,0,1-11.19-.4Z"/><path class="cls-9" d="M136.2,162.93l5.89-5.8L136.91,154A10.45,10.45,0,0,0,126,154l-5.17,3.16,5.89,5.8A6.75,6.75,0,0,0,136.2,162.93Z"/><path class="cls-9" d="M130.82,171.48l-7-6.93a12,12,0,0,0-11.07-3.17l-19.43,4.34,20.33,9.55a12.22,12.22,0,0,0,11.19-.41Z"/><path class="cls-9" d="M132.54,171.48l7-6.93a12,12,0,0,1,11.07-3.17l19.43,4.34-20.33,9.55a12.22,12.22,0,0,1-11.19-.41Z"/><path class="cls-9" d="M44.81,41.53,42.42,39.8a18.08,18.08,0,0,0-12.88-2.37L9.43,41.26l20.94,6.42a9.53,9.53,0,0,0,8.93-1.81Z"/><path class="cls-9" d="M49.14,41.53l2.35-1.73a18.1,18.1,0,0,1,12.89-2.37l20.1,3.83L63.55,47.68a9.55,9.55,0,0,1-8.94-1.81Z"/><path class="cls-9" d="M51.7,55.43l5.89-5.79-5.17-3.16a10.41,10.41,0,0,0-10.89,0l-5.17,3.16,5.88,5.79A6.73,6.73,0,0,0,51.7,55.43Z"/><path class="cls-9" d="M46.32,64l-7-6.93a12.06,12.06,0,0,0-11.06-3.17L8.78,58.22,29.1,67.77a12.24,12.24,0,0,0,11.2-.4Z"/><path class="cls-9" d="M48,64l7.05-6.93a12.07,12.07,0,0,1,11.06-3.17l19.43,4.34L65.26,67.77a12.24,12.24,0,0,1-11.2-.4Z"/><path class="cls-9" d="M94,44.8,113.73,50,93.61,54.82a19.15,19.15,0,0,1-9,0L64.52,50,84.3,44.8A19,19,0,0,1,94,44.8Z"/><path class="cls-9" d="M123.67,88.64l-15.49-7.83,16.39-6a20.85,20.85,0,0,1,14.46,0l16.15,6L139.91,88.6A17.91,17.91,0,0,1,123.67,88.64Z"/><path class="cls-9" d="M129.51,96.68,127.12,95a18.07,18.07,0,0,0-12.88-2.38L94.13,96.41l20.94,6.41A9.53,9.53,0,0,0,124,101Z"/><path class="cls-9" d="M133.84,96.68,136.2,95a18.08,18.08,0,0,1,12.88-2.38l20.11,3.84-20.94,6.41a9.53,9.53,0,0,1-8.93-1.81Z"/><path class="cls-9" d="M136.41,110.58l5.88-5.8-5.17-3.16a10.45,10.45,0,0,0-10.89,0l-5.17,3.16,5.88,5.8A6.76,6.76,0,0,0,136.41,110.58Z"/><path class="cls-9" d="M131,119.13l-7-6.93A12,12,0,0,0,112.91,109l-19.43,4.34,20.32,9.55a12.24,12.24,0,0,0,11.2-.41Z"/><path class="cls-9" d="M132.74,119.13l7-6.93A12,12,0,0,1,150.86,109l19.43,4.34L150,122.92a12.22,12.22,0,0,1-11.19-.41Z"/><path class="cls-9" d="M39,88.64l-15.5-7.83,16.39-6a20.88,20.88,0,0,1,14.47,0l16.14,6L55.21,88.6A17.91,17.91,0,0,1,39,88.64Z"/><path class="cls-9" d="M44.81,96.68,42.42,95a18.08,18.08,0,0,0-12.88-2.38L9.43,96.41l20.94,6.41A9.53,9.53,0,0,0,39.3,101Z"/><path class="cls-9" d="M49.14,96.68,51.49,95a18.11,18.11,0,0,1,12.89-2.38l20.1,3.84-20.93,6.41A9.55,9.55,0,0,1,54.61,101Z"/><path class="cls-9" d="M51.7,110.58l5.89-5.8-5.17-3.16a10.45,10.45,0,0,0-10.89,0l-5.17,3.16,5.88,5.8A6.75,6.75,0,0,0,51.7,110.58Z"/><path class="cls-9" d="M46.32,119.13l-7-6.93A12,12,0,0,0,28.21,109L8.78,113.37l20.32,9.55a12.24,12.24,0,0,0,11.2-.41Z"/><path class="cls-9" d="M48,119.13l7.05-6.93A12,12,0,0,1,66.15,109l19.43,4.34-20.32,9.55a12.24,12.24,0,0,1-11.2-.41Z"/><path class="cls-9" d="M94.15,100.51l19.78,5.16-20.12,4.86a19.15,19.15,0,0,1-9,0l-20.12-4.86,19.78-5.16A19,19,0,0,1,94.15,100.51Z"/><path class="cls-9" d="M117.44,89.61,99.73,93.2A11.94,11.94,0,0,1,91,91.64l-1.72-1.07,6.74-5.06a11,11,0,0,1,11.62-1Z"/><path class="cls-9" d="M61.21,89.61,78.92,93.2a11.94,11.94,0,0,0,8.69-1.56l1.71-1.07-6.73-5.06a11,11,0,0,0-11.62-1Z"/><path class="cls-9" d="M113.93,72.45,98.4,80.21a20.74,20.74,0,0,1-18.55,0L64.32,72.45l15.11-8a20.72,20.72,0,0,1,19.39,0Z"/><path class="cls-9" d="M39,141.82,23.47,134l16.39-6a21,21,0,0,1,14.47,0l16.14,6-15.26,7.8A17.94,17.94,0,0,1,39,141.82Z"/><path class="cls-9" d="M123,140.56l-15.5-7.83,16.39-6a20.93,20.93,0,0,1,14.47,0l16.14,6-15.26,7.79A17.94,17.94,0,0,1,123,140.56Z"/><path class="cls-9" d="M44.6,148.59l-2.39-1.73a18.07,18.07,0,0,0-12.88-2.37L9.22,148.33l20.94,6.41a9.53,9.53,0,0,0,8.93-1.81Z"/><path class="cls-9" d="M117.21,141.53l-17.72,3.59a12,12,0,0,1-8.68-1.57l-1.72-1.07,6.74-5.06a11,11,0,0,1,11.62-1Z"/><path class="cls-9" d="M48.93,148.59l2.36-1.73a18.07,18.07,0,0,1,12.88-2.37l20.11,3.84-20.94,6.41a9.53,9.53,0,0,1-8.93-1.81Z"/><path class="cls-9" d="M95.74,152.42l19.77,5.17-20.12,4.85a19.15,19.15,0,0,1-9,0L66.3,157.59l19.78-5.17A19.27,19.27,0,0,1,95.74,152.42Z"/><path class="cls-9" d="M61.66,141.53l17.72,3.59a12,12,0,0,0,8.68-1.57l1.72-1.07L83,137.42a11,11,0,0,0-11.62-1Z"/><path class="cls-9" d="M114.54,126.62,99,134.38a20.74,20.74,0,0,1-18.55,0l-15.53-7.76,15.1-8a20.74,20.74,0,0,1,19.4,0Z"/><path class="cls-9" d="M68.28,176.61l11.11-5.88a20.8,20.8,0,0,1,19.4,0l11.11,5.88"/><path class="cls-9" d="M51.5,162.5l5.88-5.8-5.17-3.16a10.41,10.41,0,0,0-10.89,0l-5.17,3.16L42,162.5A6.76,6.76,0,0,0,51.5,162.5Z"/><path class="cls-9" d="M46.11,171.05l-7-6.94A12.06,12.06,0,0,0,28,161L8.57,165.28l20.32,9.56a12.24,12.24,0,0,0,11.2-.41Z"/><path class="cls-9" d="M47.83,171.05l7.05-6.94A12,12,0,0,1,65.94,161l19.44,4.33-20.33,9.56a12.24,12.24,0,0,1-11.2-.41Z"/></g></g><g class="cls-10"><g class="cls-8"><path class="cls-4" d="M779.34,41.49,777,39.76a18.1,18.1,0,0,0-12.89-2.37L744,41.22l20.93,6.42a9.58,9.58,0,0,0,8.94-1.82Z"/><path class="cls-4" d="M779.36,148.55,777,146.82a18.08,18.08,0,0,0-12.88-2.37L744,148.28l20.94,6.42a9.56,9.56,0,0,0,8.93-1.81Z"/><path class="cls-4" d="M786.24,55.39l5.88-5.79L787,46.43a10.45,10.45,0,0,0-10.89,0l-5.17,3.17,5.89,5.79A6.73,6.73,0,0,0,786.24,55.39Z"/><path class="cls-4" d="M780.86,63.94,773.81,57a12,12,0,0,0-11.07-3.17l-19.43,4.34,20.33,9.55a12.22,12.22,0,0,0,11.19-.41Z"/><path class="cls-4" d="M786,162.89l5.89-5.8-5.17-3.16a10.41,10.41,0,0,0-10.89,0l-5.18,3.16,5.89,5.8A6.75,6.75,0,0,0,786,162.89Z"/><path class="cls-4" d="M780.65,171.44l-7-6.94a12,12,0,0,0-11.06-3.16l-19.43,4.33,20.32,9.56a12.24,12.24,0,0,0,11.2-.41Z"/><path class="cls-4" d="M694.64,41.49l-2.39-1.73a18.08,18.08,0,0,0-12.88-2.37l-20.11,3.83,20.94,6.42a9.56,9.56,0,0,0,8.93-1.82Z"/><path class="cls-4" d="M699,41.49l2.36-1.73a18.07,18.07,0,0,1,12.88-2.37l20.11,3.83-20.94,6.42a9.56,9.56,0,0,1-8.93-1.82Z"/><path class="cls-4" d="M701.54,55.39l5.88-5.79-5.17-3.17a10.45,10.45,0,0,0-10.89,0l-5.17,3.17,5.88,5.79A6.74,6.74,0,0,0,701.54,55.39Z"/><path class="cls-4" d="M696.15,63.94l-7-6.93A12,12,0,0,0,678,53.84l-19.43,4.34,20.32,9.55a12.24,12.24,0,0,0,11.2-.41Z"/><path class="cls-4" d="M697.87,63.94l7-6.93A12,12,0,0,1,716,53.84l19.43,4.34-20.32,9.55a12.24,12.24,0,0,1-11.2-.41Z"/><path class="cls-4" d="M610.74,41.49l-2.39-1.73a18.08,18.08,0,0,0-12.88-2.37l-20.11,3.83,20.94,6.42a9.56,9.56,0,0,0,8.93-1.82Z"/><path class="cls-4" d="M615.07,41.49l2.35-1.73a18.1,18.1,0,0,1,12.89-2.37l20.11,3.83-20.94,6.42a9.56,9.56,0,0,1-8.93-1.82Z"/><path class="cls-4" d="M617.64,55.39l5.88-5.79-5.17-3.17a10.45,10.45,0,0,0-10.89,0l-5.17,3.17,5.88,5.79A6.74,6.74,0,0,0,617.64,55.39Z"/><path class="cls-4" d="M612.25,63.94l-7-6.93a12,12,0,0,0-11.06-3.17l-19.43,4.34L595,67.73a12.24,12.24,0,0,0,11.2-.41Z"/><path class="cls-4" d="M614,63.94,621,57a12,12,0,0,1,11.06-3.17l19.43,4.34-20.32,9.55a12.24,12.24,0,0,1-11.2-.41Z"/><path class="cls-4" d="M743.78,44.76l19.78,5.16-20.12,4.86a19.15,19.15,0,0,1-9,0l-20.12-4.86,19.78-5.16A19,19,0,0,1,743.78,44.76Z"/><path class="cls-4" d="M659.48,44.76l19.78,5.16-20.12,4.86a19.15,19.15,0,0,1-9,0l-20.12-4.86,19.77-5.16A19,19,0,0,1,659.48,44.76Z"/><path class="cls-4" d="M575.88,44.47l19.78,5.17-20.12,4.85a19.15,19.15,0,0,1-9,0l-20.12-4.85,19.78-5.17A19.23,19.23,0,0,1,575.88,44.47Z"/><path class="cls-4" d="M773.51,88.6,758,80.77l16.39-6a20.91,20.91,0,0,1,14.46,0l16.15,6-15.26,7.79A17.94,17.94,0,0,1,773.51,88.6Z"/><path class="cls-4" d="M779.34,96.63,777,94.9a18.1,18.1,0,0,0-12.89-2.37L744,96.37l20.93,6.41a9.55,9.55,0,0,0,8.94-1.81Z"/><path class="cls-4" d="M786.24,110.54l5.88-5.8L787,101.58a10.41,10.41,0,0,0-10.89,0l-5.17,3.16,5.89,5.8A6.75,6.75,0,0,0,786.24,110.54Z"/><path class="cls-4" d="M780.86,119.09l-7.05-6.94A12.05,12.05,0,0,0,762.74,109l-19.43,4.33,20.33,9.56a12.22,12.22,0,0,0,11.19-.41Z"/><path class="cls-4" d="M688.8,88.6l-15.5-7.83,16.4-6a20.91,20.91,0,0,1,14.46,0l16.15,6L705,88.56A17.94,17.94,0,0,1,688.8,88.6Z"/><path class="cls-4" d="M694.64,96.63l-2.39-1.73a18.08,18.08,0,0,0-12.88-2.37l-20.11,3.84,20.94,6.41a9.53,9.53,0,0,0,8.93-1.81Z"/><path class="cls-4" d="M699,96.63l2.36-1.73a18.07,18.07,0,0,1,12.88-2.37l20.11,3.84-20.94,6.41a9.53,9.53,0,0,1-8.93-1.81Z"/><path class="cls-4" d="M701.54,110.54l5.88-5.8-5.17-3.16a10.41,10.41,0,0,0-10.89,0l-5.17,3.16,5.88,5.8A6.76,6.76,0,0,0,701.54,110.54Z"/><path class="cls-4" d="M696.15,119.09l-7-6.94A12,12,0,0,0,678,109l-19.43,4.33,20.32,9.56a12.24,12.24,0,0,0,11.2-.41Z"/><path class="cls-4" d="M697.87,119.09l7-6.94A12,12,0,0,1,716,109l19.43,4.33-20.32,9.56a12.24,12.24,0,0,1-11.2-.41Z"/><path class="cls-4" d="M604.9,88.6l-15.5-7.83,16.39-6a20.93,20.93,0,0,1,14.47,0l16.14,6-15.26,7.79A17.94,17.94,0,0,1,604.9,88.6Z"/><path class="cls-4" d="M610.74,96.63l-2.39-1.73a18.08,18.08,0,0,0-12.88-2.37l-20.11,3.84,20.94,6.41a9.53,9.53,0,0,0,8.93-1.81Z"/><path class="cls-4" d="M615.07,96.63l2.35-1.73a18.1,18.1,0,0,1,12.89-2.37l20.11,3.84-20.94,6.41a9.53,9.53,0,0,1-8.93-1.81Z"/><path class="cls-4" d="M617.64,110.54l5.88-5.8-5.17-3.16a10.41,10.41,0,0,0-10.89,0l-5.17,3.16,5.88,5.8A6.76,6.76,0,0,0,617.64,110.54Z"/><path class="cls-4" d="M612.25,119.09l-7-6.94A12,12,0,0,0,594.14,109l-19.43,4.33L595,122.88a12.24,12.24,0,0,0,11.2-.41Z"/><path class="cls-4" d="M614,119.09l7-6.94A12,12,0,0,1,632.08,109l19.43,4.33-20.32,9.56a12.24,12.24,0,0,1-11.2-.41Z"/><path class="cls-4" d="M612,171l-7-6.93a12.06,12.06,0,0,0-11.07-3.17l-19.43,4.34,20.32,9.55a12.24,12.24,0,0,0,11.2-.4Z"/><path class="cls-4" d="M613.76,171l7-6.93a12.06,12.06,0,0,1,11.07-3.17l19.43,4.34L631,174.79a12.24,12.24,0,0,1-11.2-.4Z"/><path class="cls-4" d="M744,100.46l19.78,5.17-20.12,4.85a19.15,19.15,0,0,1-9,0l-20.12-4.85,19.78-5.17A19.23,19.23,0,0,1,744,100.46Z"/><path class="cls-4" d="M659.68,100.46l19.78,5.17-20.12,4.85a19.15,19.15,0,0,1-9,0l-20.12-4.85L650,100.46A19.23,19.23,0,0,1,659.68,100.46Z"/><path class="cls-4" d="M767.27,89.57l-17.71,3.59a12,12,0,0,1-8.68-1.57l-1.72-1.07,6.73-5.06a11,11,0,0,1,11.62-1Z"/><path class="cls-4" d="M711,89.57l17.71,3.59a12,12,0,0,0,8.69-1.57l1.72-1.07-6.74-5.06a11,11,0,0,0-11.62-1Z"/><path class="cls-4" d="M681.84,89.57l-17.71,3.59a12,12,0,0,1-8.68-1.57l-1.72-1.07,6.73-5.06a11,11,0,0,1,11.62-1Z"/><path class="cls-4" d="M625.61,89.57l17.71,3.59A12,12,0,0,0,652,91.59l1.72-1.07L647,85.46a11,11,0,0,0-11.62-1Z"/><path class="cls-4" d="M763.76,72.4l-15.53,7.76a20.74,20.74,0,0,1-18.55,0L714.15,72.4l15.11-8a20.72,20.72,0,0,1,19.39,0Z"/><path class="cls-4" d="M679.46,72.4l-15.53,7.76a20.74,20.74,0,0,1-18.55,0L629.85,72.4l15.1-8a20.74,20.74,0,0,1,19.4,0Z"/><path class="cls-4" d="M577,100.54l19.78,5.16-20.12,4.86a19.15,19.15,0,0,1-9,0l-20.12-4.86,19.77-5.16A19,19,0,0,1,577,100.54Z"/><path class="cls-4" d="M599.17,89.64l-17.71,3.59a11.94,11.94,0,0,1-8.69-1.56l-1.72-1.07,6.74-5.06a11,11,0,0,1,11.62-1Z"/><path class="cls-4" d="M542.94,89.64l17.71,3.59a11.94,11.94,0,0,0,8.69-1.56l1.71-1.07-6.73-5.06a11,11,0,0,0-11.62-1Z"/><path class="cls-4" d="M596.79,72.48l-15.53,7.76a20.76,20.76,0,0,1-18.56,0l-15.52-7.76,15.1-8a20.74,20.74,0,0,1,19.4,0Z"/><path class="cls-4" d="M688.8,141.78,673.3,134l16.4-6a20.85,20.85,0,0,1,14.46,0l16.15,6L705,141.74A17.91,17.91,0,0,1,688.8,141.78Z"/><path class="cls-4" d="M772.85,140.51l-15.5-7.82,16.4-6a21,21,0,0,1,14.46,0l16.15,6-15.27,7.79A17.94,17.94,0,0,1,772.85,140.51Z"/><path class="cls-4" d="M682.13,141.48l-17.71,3.6a12,12,0,0,1-8.69-1.57L654,142.44l6.74-5.06a10.94,10.94,0,0,1,11.62-1Z"/><path class="cls-4" d="M605.88,140.51l-15.5-7.82,16.39-6a21,21,0,0,1,14.46,0l16.15,6-15.26,7.79A17.94,17.94,0,0,1,605.88,140.51Z"/><path class="cls-4" d="M611.71,148.55l-2.38-1.73a18.1,18.1,0,0,0-12.89-2.37l-20.1,3.83,20.93,6.42a9.58,9.58,0,0,0,8.94-1.81Z"/><path class="cls-4" d="M616,148.55l2.36-1.73a18.09,18.09,0,0,1,12.89-2.37l20.1,3.83-20.94,6.42a9.56,9.56,0,0,1-8.93-1.81Z"/><path class="cls-4" d="M618.61,162.45l5.89-5.79-5.18-3.16a10.41,10.41,0,0,0-10.89,0l-5.17,3.16,5.89,5.79A6.73,6.73,0,0,0,618.61,162.45Z"/><path class="cls-4" d="M660.66,152.38l19.77,5.16-20.12,4.86a19.15,19.15,0,0,1-9,0l-20.12-4.86L651,152.38A19,19,0,0,1,660.66,152.38Z"/><path class="cls-4" d="M626.59,141.48l17.71,3.6a12,12,0,0,0,8.68-1.57l1.72-1.07L648,137.38a10.93,10.93,0,0,0-11.61-1Z"/><path class="cls-4" d="M679.46,126.58l-15.53,7.76a20.74,20.74,0,0,1-18.55,0l-15.53-7.76,15.1-8a20.8,20.8,0,0,1,19.4,0Z"/><path class="cls-4" d="M694.43,148.55l-2.38-1.73a18.1,18.1,0,0,0-12.89-2.37l-20.11,3.83L680,154.7a9.55,9.55,0,0,0,8.93-1.81Z"/><path class="cls-4" d="M767,141.48l-17.71,3.6a12,12,0,0,1-8.69-1.57l-1.72-1.07,6.74-5.06a10.94,10.94,0,0,1,11.62-1Z"/><path class="cls-4" d="M698.76,148.55l2.36-1.73A18.08,18.08,0,0,1,714,144.45l20.11,3.83-20.94,6.42a9.56,9.56,0,0,1-8.93-1.81Z"/><path class="cls-4" d="M745.57,152.38l19.77,5.16-20.12,4.86a19.15,19.15,0,0,1-9,0l-20.11-4.86,19.77-5.16A19,19,0,0,1,745.57,152.38Z"/><path class="cls-4" d="M711.5,141.48l17.71,3.6a12,12,0,0,0,8.68-1.57l1.72-1.07-6.74-5.06a10.93,10.93,0,0,0-11.61-1Z"/><path class="cls-4" d="M764.37,126.58l-15.53,7.76a20.74,20.74,0,0,1-18.55,0l-15.53-7.76,15.11-8a20.78,20.78,0,0,1,19.39,0Z"/><path class="cls-4" d="M718.65,176.28l10.58-5.59a20.72,20.72,0,0,1,19.39,0l10.78,5.7"/><path class="cls-4" d="M634.58,176.28l10.58-5.59a20.72,20.72,0,0,1,19.39,0l10.58,5.59"/><path class="cls-4" d="M598.18,141.47l-17.71,3.59a11.94,11.94,0,0,1-8.69-1.56l-1.71-1.07,6.73-5.06a11,11,0,0,1,11.62-1Z"/><path class="cls-4" d="M576.71,152.37l19.78,5.16-20.12,4.86a19.15,19.15,0,0,1-9,0l-20.12-4.86,19.77-5.16A19,19,0,0,1,576.71,152.37Z"/><path class="cls-4" d="M542.64,141.47l17.71,3.59A11.91,11.91,0,0,0,569,143.5l1.72-1.07L564,137.37a11,11,0,0,0-11.62-1Z"/><path class="cls-4" d="M595.51,126.57,580,134.33a20.74,20.74,0,0,1-18.55,0l-15.53-7.76,15.11-8a20.72,20.72,0,0,1,19.39,0Z"/><path class="cls-4" d="M550.61,176.28l10.6-5.6a20.74,20.74,0,0,1,19.4,0l10.59,5.6"/><path class="cls-4" d="M701.33,162.45l5.88-5.79L702,153.5a10.41,10.41,0,0,0-10.89,0L686,156.66l5.89,5.79A6.73,6.73,0,0,0,701.33,162.45Z"/><path class="cls-4" d="M695.94,171l-7-6.93a12.06,12.06,0,0,0-11.07-3.17l-19.43,4.34,20.33,9.55a12.22,12.22,0,0,0,11.19-.4Z"/><path class="cls-4" d="M697.66,171l7.05-6.93a12.06,12.06,0,0,1,11.07-3.17l19.43,4.34-20.33,9.55a12.22,12.22,0,0,1-11.19-.4Z"/><path class="cls-4" d="M527,41.2l-2.39-1.72a18.07,18.07,0,0,0-12.88-2.38l-20.11,3.84,20.94,6.41a9.53,9.53,0,0,0,8.93-1.81Z"/><path class="cls-4" d="M531.37,41.2l2.36-1.72a18.07,18.07,0,0,1,12.88-2.38l20.11,3.84-20.94,6.41a9.53,9.53,0,0,1-8.93-1.81Z"/><path class="cls-4" d="M527.06,148.27l-2.39-1.73a18.05,18.05,0,0,0-12.89-2.37L491.68,148l20.93,6.42a9.58,9.58,0,0,0,8.94-1.82Z"/><path class="cls-4" d="M531.39,148.27l2.35-1.73a18.05,18.05,0,0,1,12.89-2.37l20.1,3.83-20.93,6.42a9.58,9.58,0,0,1-8.94-1.82Z"/><path class="cls-4" d="M533.94,55.11l5.88-5.8-5.17-3.16a10.45,10.45,0,0,0-10.89,0l-5.17,3.16,5.88,5.8A6.76,6.76,0,0,0,533.94,55.11Z"/><path class="cls-4" d="M528.55,63.66l-7-6.93a12,12,0,0,0-11.07-3.17L491,57.9l20.32,9.55a12.24,12.24,0,0,0,11.2-.41Z"/><path class="cls-4" d="M530.27,63.66l7.05-6.93a12,12,0,0,1,11.06-3.17l19.44,4.34-20.33,9.55a12.24,12.24,0,0,1-11.2-.41Z"/><path class="cls-4" d="M533.73,162.6l5.89-5.79-5.18-3.16a10.41,10.41,0,0,0-10.89,0l-5.17,3.16,5.89,5.79A6.73,6.73,0,0,0,533.73,162.6Z"/><path class="cls-4" d="M528.35,171.15l-7.05-6.93a12.06,12.06,0,0,0-11.07-3.17l-19.43,4.34,20.33,9.55a12.22,12.22,0,0,0,11.19-.4Z"/><path class="cls-4" d="M530.07,171.15l7-6.93a12.06,12.06,0,0,1,11.07-3.17l19.43,4.34-20.33,9.55a12.22,12.22,0,0,1-11.19-.4Z"/><path class="cls-4" d="M442.34,41.2,440,39.48a18.1,18.1,0,0,0-12.89-2.38L407,40.94l20.94,6.41a9.53,9.53,0,0,0,8.93-1.81Z"/><path class="cls-4" d="M446.67,41.2,449,39.48a18.11,18.11,0,0,1,12.89-2.38L482,40.94l-20.93,6.41a9.55,9.55,0,0,1-8.94-1.81Z"/><path class="cls-4" d="M449.23,55.11l5.89-5.8L450,46.15a10.45,10.45,0,0,0-10.89,0l-5.18,3.16,5.89,5.8A6.75,6.75,0,0,0,449.23,55.11Z"/><path class="cls-4" d="M443.85,63.66l-7.05-6.93a12,12,0,0,0-11.06-3.17L406.31,57.9l20.32,9.55a12.24,12.24,0,0,0,11.2-.41Z"/><path class="cls-4" d="M445.57,63.66l7.05-6.93a12,12,0,0,1,11.06-3.17l19.43,4.34-20.32,9.55a12.24,12.24,0,0,1-11.2-.41Z"/><path class="cls-4" d="M491.48,44.47l19.78,5.17-20.12,4.85a19.15,19.15,0,0,1-9,0l-20.12-4.85,19.77-5.17A19.27,19.27,0,0,1,491.48,44.47Z"/><path class="cls-4" d="M521.2,88.31l-15.5-7.82,16.4-6a21,21,0,0,1,14.46,0l16.15,6-15.27,7.79A17.94,17.94,0,0,1,521.2,88.31Z"/><path class="cls-4" d="M527,96.35l-2.39-1.73a18.07,18.07,0,0,0-12.88-2.37l-20.11,3.83,20.94,6.42a9.56,9.56,0,0,0,8.93-1.81Z"/><path class="cls-4" d="M531.37,96.35l2.36-1.73a18.07,18.07,0,0,1,12.88-2.37l20.11,3.83-20.94,6.42a9.56,9.56,0,0,1-8.93-1.81Z"/><path class="cls-4" d="M533.94,110.25l5.88-5.79-5.17-3.16a10.41,10.41,0,0,0-10.89,0l-5.17,3.16,5.88,5.79A6.74,6.74,0,0,0,533.94,110.25Z"/><path class="cls-4" d="M528.55,118.8l-7-6.93a12.06,12.06,0,0,0-11.07-3.17L491,113l20.32,9.55a12.24,12.24,0,0,0,11.2-.4Z"/><path class="cls-4" d="M530.27,118.8l7.05-6.93a12,12,0,0,1,11.06-3.17L567.82,113l-20.33,9.55a12.24,12.24,0,0,1-11.2-.4Z"/><path class="cls-4" d="M436.5,88.31,421,80.49l16.39-6a21,21,0,0,1,14.47,0l16.14,6-15.26,7.79A17.94,17.94,0,0,1,436.5,88.31Z"/><path class="cls-4" d="M442.34,96.35,440,94.62a18.09,18.09,0,0,0-12.89-2.37L407,96.08l20.94,6.42a9.56,9.56,0,0,0,8.93-1.81Z"/><path class="cls-4" d="M446.67,96.35,449,94.62a18.1,18.1,0,0,1,12.89-2.37L482,96.08l-20.93,6.42a9.58,9.58,0,0,1-8.94-1.81Z"/><path class="cls-4" d="M449.23,110.25l5.89-5.79L450,101.3a10.41,10.41,0,0,0-10.89,0l-5.18,3.16,5.89,5.79A6.73,6.73,0,0,0,449.23,110.25Z"/><path class="cls-4" d="M443.85,118.8l-7.05-6.93a12,12,0,0,0-11.06-3.17L406.31,113l20.32,9.55a12.24,12.24,0,0,0,11.2-.4Z"/><path class="cls-4" d="M445.57,118.8l7.05-6.93a12,12,0,0,1,11.06-3.17L483.11,113l-20.32,9.55a12.24,12.24,0,0,1-11.2-.4Z"/><path class="cls-4" d="M491.68,100.18l19.78,5.16-20.12,4.86a19.15,19.15,0,0,1-9,0l-20.12-4.86L482,100.18A19,19,0,0,1,491.68,100.18Z"/><path class="cls-4" d="M515,89.28l-17.71,3.6a12,12,0,0,1-8.69-1.57l-1.72-1.07,6.74-5.06a10.94,10.94,0,0,1,11.62-1Z"/><path class="cls-4" d="M458.74,89.28l17.71,3.6a12,12,0,0,0,8.68-1.57l1.72-1.07-6.73-5.06a11,11,0,0,0-11.62-1Z"/><path class="cls-4" d="M511.46,72.12l-15.53,7.76a20.74,20.74,0,0,1-18.55,0l-15.53-7.76,15.1-8a20.74,20.74,0,0,1,19.4,0Z"/><path class="cls-4" d="M436.5,141.5,421,133.67l16.39-6a20.93,20.93,0,0,1,14.47,0l16.14,6-15.26,7.79A17.94,17.94,0,0,1,436.5,141.5Z"/><path class="cls-4" d="M520.55,140.23l-15.5-7.83,16.39-6a20.93,20.93,0,0,1,14.47,0l16.14,6-15.26,7.8A17.94,17.94,0,0,1,520.55,140.23Z"/><path class="cls-4" d="M442.13,148.27l-2.39-1.73a18,18,0,0,0-12.88-2.37L406.75,148l20.94,6.42a9.56,9.56,0,0,0,8.93-1.82Z"/><path class="cls-4" d="M514.74,141.2,497,144.79a11.92,11.92,0,0,1-8.68-1.56l-1.72-1.07,6.74-5.06a10.94,10.94,0,0,1,11.62-1Z"/><path class="cls-4" d="M446.46,148.27l2.36-1.73a18,18,0,0,1,12.88-2.37L481.81,148l-20.94,6.42a9.56,9.56,0,0,1-8.93-1.82Z"/><path class="cls-4" d="M493.27,152.1,513,157.26l-20.12,4.86a19.15,19.15,0,0,1-9,0l-20.12-4.86,19.78-5.16A19,19,0,0,1,493.27,152.1Z"/><path class="cls-4" d="M459.19,141.2l17.72,3.59a11.92,11.92,0,0,0,8.68-1.56l1.72-1.07-6.74-5.06a10.94,10.94,0,0,0-11.62-1Z"/><path class="cls-4" d="M512.07,126.3l-15.53,7.76a20.74,20.74,0,0,1-18.55,0l-15.53-7.76,15.1-8a20.74,20.74,0,0,1,19.4,0Z"/><path class="cls-4" d="M465.81,176.28l11.11-5.87a20.74,20.74,0,0,1,19.4,0l11.11,5.87"/><path class="cls-4" d="M449,162.17l5.88-5.79-5.17-3.17a10.45,10.45,0,0,0-10.89,0l-5.17,3.17,5.88,5.79A6.74,6.74,0,0,0,449,162.17Z"/><path class="cls-4" d="M443.64,170.72l-7.05-6.93a12,12,0,0,0-11.06-3.17L406.1,165l20.32,9.55a12.24,12.24,0,0,0,11.2-.41Z"/><path class="cls-4" d="M445.36,170.72l7.05-6.93a12,12,0,0,1,11.06-3.17L482.9,165l-20.32,9.55a12.24,12.24,0,0,1-11.2-.41Z"/></g></g><g class="cls-11"><g class="cls-8"><path class="cls-5" d="M1177.13,41.71,1174.74,40a18.09,18.09,0,0,0-12.89-2.37l-20.1,3.83,20.94,6.42a9.56,9.56,0,0,0,8.93-1.82Z"/><path class="cls-5" d="M1177.14,148.77l-2.38-1.73a18.1,18.1,0,0,0-12.89-2.37l-20.11,3.83,20.94,6.42a9.55,9.55,0,0,0,8.93-1.81Z"/><path class="cls-5" d="M1184,55.61l5.89-5.79-5.17-3.17a10.45,10.45,0,0,0-10.89,0l-5.18,3.17,5.89,5.79A6.73,6.73,0,0,0,1184,55.61Z"/><path class="cls-5" d="M1178.64,64.16l-7.05-6.93a12,12,0,0,0-11.06-3.17L1141.1,58.4,1161.42,68a12.24,12.24,0,0,0,11.2-.41Z"/><path class="cls-5" d="M1183.82,163.11l5.88-5.8-5.17-3.16a10.41,10.41,0,0,0-10.89,0l-5.17,3.16,5.88,5.8A6.76,6.76,0,0,0,1183.82,163.11Z"/><path class="cls-5" d="M1178.43,171.66l-7-6.94a12,12,0,0,0-11.06-3.16l-19.43,4.33,20.32,9.56a12.24,12.24,0,0,0,11.2-.41Z"/><path class="cls-5" d="M1092.42,41.71,1090,40a18.1,18.1,0,0,0-12.89-2.37l-20.1,3.83L1078,47.86a9.58,9.58,0,0,0,8.94-1.82Z"/><path class="cls-5" d="M1096.75,41.71l2.36-1.73A18.09,18.09,0,0,1,1112,37.61l20.1,3.83-20.94,6.42a9.56,9.56,0,0,1-8.93-1.82Z"/><path class="cls-5" d="M1099.32,55.61l5.89-5.79L1100,46.65a10.45,10.45,0,0,0-10.89,0L1084,49.82l5.89,5.79A6.73,6.73,0,0,0,1099.32,55.61Z"/><path class="cls-5" d="M1093.94,64.16l-7-6.93a12,12,0,0,0-11.07-3.17l-19.43,4.34L1076.72,68a12.22,12.22,0,0,0,11.19-.41Z"/><path class="cls-5" d="M1095.66,64.16l7-6.93a12,12,0,0,1,11.07-3.17l19.43,4.34L1112.87,68a12.22,12.22,0,0,1-11.19-.41Z"/><path class="cls-5" d="M1008.52,41.71,1006.14,40a18.1,18.1,0,0,0-12.89-2.37l-20.1,3.83,20.93,6.42A9.56,9.56,0,0,0,1003,46Z"/><path class="cls-5" d="M1012.85,41.71l2.36-1.73a18.08,18.08,0,0,1,12.88-2.37l20.11,3.83-20.94,6.42a9.56,9.56,0,0,1-8.93-1.82Z"/><path class="cls-5" d="M1015.42,55.61l5.88-5.79-5.17-3.17a10.45,10.45,0,0,0-10.89,0l-5.17,3.17,5.89,5.79A6.73,6.73,0,0,0,1015.42,55.61Z"/><path class="cls-5" d="M1010,64.16l-7-6.93a12,12,0,0,0-11.07-3.17L972.49,58.4,992.82,68a12.22,12.22,0,0,0,11.19-.41Z"/><path class="cls-5" d="M1011.75,64.16l7-6.93a12,12,0,0,1,11.07-3.17l19.43,4.34L1029,68a12.22,12.22,0,0,1-11.19-.41Z"/><path class="cls-5" d="M1141.57,45l19.77,5.16L1141.22,55a19.15,19.15,0,0,1-9,0l-20.11-4.86L1131.91,45A19,19,0,0,1,1141.57,45Z"/><path class="cls-5" d="M1057.27,45,1077,50.14,1056.92,55a19.15,19.15,0,0,1-9,0l-20.12-4.86L1047.61,45A19,19,0,0,1,1057.27,45Z"/><path class="cls-5" d="M973.67,44.69l19.77,5.17-20.12,4.85a19.15,19.15,0,0,1-9,0l-20.12-4.85L964,44.69A19.27,19.27,0,0,1,973.67,44.69Z"/><path class="cls-5" d="M1171.29,88.82,1155.79,81l16.39-6a20.91,20.91,0,0,1,14.46,0l16.15,6-15.26,7.79A17.94,17.94,0,0,1,1171.29,88.82Z"/><path class="cls-5" d="M1177.13,96.85l-2.39-1.73a18.09,18.09,0,0,0-12.89-2.37l-20.1,3.84,20.94,6.41a9.53,9.53,0,0,0,8.93-1.81Z"/><path class="cls-5" d="M1184,110.76l5.89-5.8-5.17-3.16a10.41,10.41,0,0,0-10.89,0l-5.18,3.16,5.89,5.8A6.75,6.75,0,0,0,1184,110.76Z"/><path class="cls-5" d="M1178.64,119.31l-7.05-6.94a12,12,0,0,0-11.06-3.16l-19.43,4.33,20.32,9.56a12.24,12.24,0,0,0,11.2-.41Z"/><path class="cls-5" d="M1086.59,88.82,1071.09,81l16.39-6a20.91,20.91,0,0,1,14.46,0l16.15,6-15.26,7.79A17.94,17.94,0,0,1,1086.59,88.82Z"/><path class="cls-5" d="M1092.42,96.85,1090,95.12a18.1,18.1,0,0,0-12.89-2.37l-20.1,3.84L1078,103a9.55,9.55,0,0,0,8.94-1.81Z"/><path class="cls-5" d="M1096.75,96.85l2.36-1.73A18.09,18.09,0,0,1,1112,92.75l20.1,3.84L1111.16,103a9.53,9.53,0,0,1-8.93-1.81Z"/><path class="cls-5" d="M1099.32,110.76l5.89-5.8L1100,101.8a10.41,10.41,0,0,0-10.89,0L1084,105l5.89,5.8A6.75,6.75,0,0,0,1099.32,110.76Z"/><path class="cls-5" d="M1093.94,119.31l-7-6.94a12.05,12.05,0,0,0-11.07-3.16l-19.43,4.33,20.33,9.56a12.22,12.22,0,0,0,11.19-.41Z"/><path class="cls-5" d="M1095.66,119.31l7-6.94a12.05,12.05,0,0,1,11.07-3.16l19.43,4.33-20.33,9.56a12.22,12.22,0,0,1-11.19-.41Z"/><path class="cls-5" d="M1002.69,88.82,987.19,81l16.39-6A20.91,20.91,0,0,1,1018,75l16.15,6-15.27,7.79A17.92,17.92,0,0,1,1002.69,88.82Z"/><path class="cls-5" d="M1008.52,96.85l-2.38-1.73a18.1,18.1,0,0,0-12.89-2.37l-20.1,3.84L994.08,103a9.53,9.53,0,0,0,8.93-1.81Z"/><path class="cls-5" d="M1012.85,96.85l2.36-1.73a18.08,18.08,0,0,1,12.88-2.37l20.11,3.84L1027.26,103a9.53,9.53,0,0,1-8.93-1.81Z"/><path class="cls-5" d="M1015.42,110.76l5.88-5.8-5.17-3.16a10.41,10.41,0,0,0-10.89,0l-5.17,3.16,5.89,5.8A6.75,6.75,0,0,0,1015.42,110.76Z"/><path class="cls-5" d="M1010,119.31l-7-6.94a12.05,12.05,0,0,0-11.07-3.16l-19.43,4.33,20.33,9.56a12.22,12.22,0,0,0,11.19-.41Z"/><path class="cls-5" d="M1011.75,119.31l7-6.94a12.05,12.05,0,0,1,11.07-3.16l19.43,4.33L1029,123.1a12.22,12.22,0,0,1-11.19-.41Z"/><path class="cls-5" d="M1009.83,171.22l-7.05-6.93a12,12,0,0,0-11.06-3.17l-19.44,4.34L992.61,175a12.24,12.24,0,0,0,11.2-.4Z"/><path class="cls-5" d="M1011.55,171.22l7-6.93a12.06,12.06,0,0,1,11.07-3.17l19.43,4.34L1028.77,175a12.24,12.24,0,0,1-11.2-.4Z"/><path class="cls-5" d="M1141.77,100.68l19.77,5.17-20.11,4.85a19.15,19.15,0,0,1-9,0l-20.12-4.85,19.77-5.17A19.27,19.27,0,0,1,1141.77,100.68Z"/><path class="cls-5" d="M1057.47,100.68l19.77,5.17-20.12,4.85a19.15,19.15,0,0,1-9,0L1028,105.85l19.78-5.17A19.27,19.27,0,0,1,1057.47,100.68Z"/><path class="cls-5" d="M1165.06,89.79l-17.72,3.59a12,12,0,0,1-8.68-1.57l-1.72-1.07,6.74-5.06a11,11,0,0,1,11.62-1Z"/><path class="cls-5" d="M1108.82,89.79l17.72,3.59a12,12,0,0,0,8.68-1.57l1.72-1.07-6.74-5.06a11,11,0,0,0-11.62-1Z"/><path class="cls-5" d="M1079.63,89.79l-17.72,3.59a12,12,0,0,1-8.68-1.57l-1.72-1.07,6.74-5.06a11,11,0,0,1,11.62-1Z"/><path class="cls-5" d="M1023.39,89.79l17.72,3.59a12,12,0,0,0,8.68-1.57l1.72-1.07-6.74-5.06a11,11,0,0,0-11.62-1Z"/><path class="cls-5" d="M1161.54,72.62,1146,80.38a20.76,20.76,0,0,1-18.56,0l-15.53-7.76,15.11-8a20.74,20.74,0,0,1,19.4,0Z"/><path class="cls-5" d="M1077.24,72.62l-15.53,7.76a20.74,20.74,0,0,1-18.55,0l-15.53-7.76,15.11-8a20.74,20.74,0,0,1,19.4,0Z"/><path class="cls-5" d="M974.79,100.76l19.78,5.16-20.12,4.86a19.15,19.15,0,0,1-9,0l-20.12-4.86,19.78-5.16A19,19,0,0,1,974.79,100.76Z"/><path class="cls-5" d="M997,89.86l-17.71,3.59a11.92,11.92,0,0,1-8.68-1.56l-1.72-1.07,6.74-5.06a11,11,0,0,1,11.61-1Z"/><path class="cls-5" d="M940.72,89.86l17.72,3.59a11.92,11.92,0,0,0,8.68-1.56l1.72-1.07-6.74-5.06a11,11,0,0,0-11.62-1Z"/><path class="cls-5" d="M994.57,72.7,979,80.46a20.74,20.74,0,0,1-18.55,0L945,72.7l15.11-8a20.72,20.72,0,0,1,19.39,0Z"/><path class="cls-5" d="M1086.59,142l-15.5-7.83,16.39-6a20.85,20.85,0,0,1,14.46,0l16.15,6L1102.83,142A17.91,17.91,0,0,1,1086.59,142Z"/><path class="cls-5" d="M1170.64,140.73l-15.5-7.82,16.39-6a21,21,0,0,1,14.46,0l16.15,6-15.26,7.79A17.94,17.94,0,0,1,1170.64,140.73Z"/><path class="cls-5" d="M1079.91,141.7l-17.71,3.6a12,12,0,0,1-8.68-1.57l-1.72-1.07,6.73-5.06a11,11,0,0,1,11.62-1Z"/><path class="cls-5" d="M1003.66,140.73l-15.5-7.82,16.39-6a21,21,0,0,1,14.47,0l16.14,6-15.26,7.79A17.94,17.94,0,0,1,1003.66,140.73Z"/><path class="cls-5" d="M1009.5,148.77l-2.39-1.73a18.09,18.09,0,0,0-12.89-2.37l-20.1,3.83,20.94,6.42a9.56,9.56,0,0,0,8.93-1.81Z"/><path class="cls-5" d="M1013.83,148.77l2.35-1.73a18.1,18.1,0,0,1,12.89-2.37l20.1,3.83-20.93,6.42a9.58,9.58,0,0,1-8.94-1.81Z"/><path class="cls-5" d="M1016.39,162.67l5.89-5.79-5.17-3.16a10.41,10.41,0,0,0-10.89,0l-5.17,3.16,5.88,5.79A6.73,6.73,0,0,0,1016.39,162.67Z"/><path class="cls-5" d="M1058.44,152.6l19.78,5.16-20.12,4.86a19.15,19.15,0,0,1-9,0L1029,157.76l19.77-5.16A19,19,0,0,1,1058.44,152.6Z"/><path class="cls-5" d="M1024.37,141.7l17.71,3.6a12,12,0,0,0,8.69-1.57l1.71-1.07-6.73-5.06a10.94,10.94,0,0,0-11.62-1Z"/><path class="cls-5" d="M1077.24,126.8l-15.53,7.76a20.74,20.74,0,0,1-18.55,0l-15.53-7.76,15.11-8a20.8,20.8,0,0,1,19.4,0Z"/><path class="cls-5" d="M1092.22,148.77l-2.39-1.73a18.1,18.1,0,0,0-12.89-2.37l-20.1,3.83,20.93,6.42a9.57,9.57,0,0,0,8.94-1.81Z"/><path class="cls-5" d="M1164.82,141.7l-17.71,3.6a12,12,0,0,1-8.68-1.57l-1.72-1.07,6.74-5.06a10.93,10.93,0,0,1,11.61-1Z"/><path class="cls-5" d="M1096.55,148.77l2.35-1.73a18.1,18.1,0,0,1,12.89-2.37l20.1,3.83L1111,154.92a9.57,9.57,0,0,1-8.94-1.81Z"/><path class="cls-5" d="M1143.35,152.6l19.78,5.16L1143,162.62a19.15,19.15,0,0,1-9,0l-20.12-4.86,19.77-5.16A19,19,0,0,1,1143.35,152.6Z"/><path class="cls-5" d="M1109.28,141.7l17.71,3.6a12,12,0,0,0,8.69-1.57l1.72-1.07-6.74-5.06a10.94,10.94,0,0,0-11.62-1Z"/><path class="cls-5" d="M1162.15,126.8l-15.53,7.76a20.74,20.74,0,0,1-18.55,0l-15.53-7.76,15.11-8a20.8,20.8,0,0,1,19.4,0Z"/><path class="cls-5" d="M1116.43,176.5l10.58-5.59a20.74,20.74,0,0,1,19.4,0l10.77,5.7"/><path class="cls-5" d="M1032.36,176.5l10.58-5.59a20.74,20.74,0,0,1,19.4,0l10.57,5.59"/><path class="cls-5" d="M996,141.69l-17.72,3.59a11.92,11.92,0,0,1-8.68-1.56l-1.72-1.07,6.74-5.06a10.93,10.93,0,0,1,11.61-1Z"/><path class="cls-5" d="M974.49,152.59l19.78,5.16-20.12,4.86a19.15,19.15,0,0,1-9,0l-20.12-4.86,19.78-5.16A19,19,0,0,1,974.49,152.59Z"/><path class="cls-5" d="M940.42,141.69l17.71,3.59a11.94,11.94,0,0,0,8.69-1.56l1.72-1.07-6.74-5.06a10.94,10.94,0,0,0-11.62-1Z"/><path class="cls-5" d="M993.29,126.79l-15.52,7.76a20.76,20.76,0,0,1-18.56,0l-15.52-7.76,15.1-8a20.74,20.74,0,0,1,19.4,0Z"/><path class="cls-5" d="M948.39,176.5l10.6-5.6a20.74,20.74,0,0,1,19.4,0l10.6,5.6"/><path class="cls-5" d="M1099.11,162.67l5.89-5.79-5.17-3.16a10.41,10.41,0,0,0-10.89,0l-5.18,3.16,5.89,5.79A6.73,6.73,0,0,0,1099.11,162.67Z"/><path class="cls-5" d="M1093.73,171.22l-7-6.93a12,12,0,0,0-11.06-3.17l-19.43,4.34,20.32,9.55a12.24,12.24,0,0,0,11.2-.4Z"/><path class="cls-5" d="M1095.45,171.22l7-6.93a12,12,0,0,1,11.06-3.17l19.43,4.34L1112.67,175a12.24,12.24,0,0,1-11.2-.4Z"/><path class="cls-5" d="M924.82,41.42l-2.38-1.72a18.11,18.11,0,0,0-12.89-2.38l-20.1,3.84,20.93,6.41a9.55,9.55,0,0,0,8.94-1.81Z"/><path class="cls-5" d="M929.15,41.42l2.36-1.72a18.11,18.11,0,0,1,12.89-2.38l20.1,3.84-20.93,6.41a9.55,9.55,0,0,1-8.94-1.81Z"/><path class="cls-5" d="M924.84,148.49l-2.39-1.73a18,18,0,0,0-12.88-2.37l-20.11,3.83,20.94,6.42a9.56,9.56,0,0,0,8.93-1.82Z"/><path class="cls-5" d="M929.17,148.49l2.36-1.73a18,18,0,0,1,12.88-2.37l20.11,3.83-20.94,6.42a9.56,9.56,0,0,1-8.93-1.82Z"/><path class="cls-5" d="M931.72,55.33l5.89-5.8-5.18-3.16a10.45,10.45,0,0,0-10.89,0l-5.17,3.16,5.89,5.8A6.75,6.75,0,0,0,931.72,55.33Z"/><path class="cls-5" d="M926.34,63.88,919.29,57a12,12,0,0,0-11.06-3.17l-19.44,4.34,20.33,9.55a12.24,12.24,0,0,0,11.2-.41Z"/><path class="cls-5" d="M928.06,63.88l7-6.93a12,12,0,0,1,11.07-3.17l19.43,4.34-20.32,9.55a12.24,12.24,0,0,1-11.2-.41Z"/><path class="cls-5" d="M931.51,162.82,937.4,157l-5.17-3.16a10.41,10.41,0,0,0-10.89,0L916.17,157l5.88,5.79A6.73,6.73,0,0,0,931.51,162.82Z"/><path class="cls-5" d="M926.13,171.37l-7-6.93A12,12,0,0,0,908,161.27l-19.43,4.34,20.32,9.55a12.24,12.24,0,0,0,11.2-.4Z"/><path class="cls-5" d="M927.85,171.37l7-6.93A12,12,0,0,1,946,161.27l19.43,4.34-20.32,9.55a12.24,12.24,0,0,1-11.2-.4Z"/><path class="cls-5" d="M840.12,41.42l-2.39-1.72a18.07,18.07,0,0,0-12.88-2.38l-20.11,3.84,20.94,6.41a9.53,9.53,0,0,0,8.93-1.81Z"/><path class="cls-5" d="M844.45,41.42l2.36-1.72a18.08,18.08,0,0,1,12.88-2.38l20.11,3.84-20.94,6.41a9.53,9.53,0,0,1-8.93-1.81Z"/><path class="cls-5" d="M847,55.33l5.88-5.8-5.17-3.16a10.45,10.45,0,0,0-10.89,0l-5.17,3.16,5.88,5.8A6.76,6.76,0,0,0,847,55.33Z"/><path class="cls-5" d="M841.63,63.88l-7-6.93a12,12,0,0,0-11.07-3.17l-19.43,4.34,20.32,9.55a12.24,12.24,0,0,0,11.2-.41Z"/><path class="cls-5" d="M843.35,63.88l7-6.93a12,12,0,0,1,11.07-3.17l19.43,4.34-20.33,9.55a12.22,12.22,0,0,1-11.19-.41Z"/><path class="cls-5" d="M889.27,44.69,909,49.86l-20.12,4.85a19.15,19.15,0,0,1-9,0l-20.12-4.85,19.78-5.17A19.27,19.27,0,0,1,889.27,44.69Z"/><path class="cls-5" d="M919,88.53l-15.5-7.82,16.39-6a21,21,0,0,1,14.46,0l16.15,6L935.23,88.5A17.94,17.94,0,0,1,919,88.53Z"/><path class="cls-5" d="M924.82,96.57l-2.38-1.73a18.1,18.1,0,0,0-12.89-2.37l-20.1,3.83,20.93,6.42a9.57,9.57,0,0,0,8.94-1.81Z"/><path class="cls-5" d="M929.15,96.57l2.36-1.73a18.1,18.1,0,0,1,12.89-2.37l20.1,3.83-20.93,6.42a9.57,9.57,0,0,1-8.94-1.81Z"/><path class="cls-5" d="M931.72,110.47l5.89-5.79-5.18-3.16a10.41,10.41,0,0,0-10.89,0l-5.17,3.16,5.89,5.79A6.73,6.73,0,0,0,931.72,110.47Z"/><path class="cls-5" d="M926.34,119l-7.05-6.93a12,12,0,0,0-11.06-3.17l-19.44,4.34,20.33,9.55a12.24,12.24,0,0,0,11.2-.4Z"/><path class="cls-5" d="M928.06,119l7-6.93a12.06,12.06,0,0,1,11.07-3.17l19.43,4.34-20.32,9.55a12.24,12.24,0,0,1-11.2-.4Z"/><path class="cls-5" d="M834.28,88.53l-15.5-7.82,16.4-6a21,21,0,0,1,14.46,0l16.15,6L850.52,88.5A17.94,17.94,0,0,1,834.28,88.53Z"/><path class="cls-5" d="M840.12,96.57l-2.39-1.73a18.07,18.07,0,0,0-12.88-2.37L804.74,96.3l20.94,6.42a9.56,9.56,0,0,0,8.93-1.81Z"/><path class="cls-5" d="M844.45,96.57l2.36-1.73a18.08,18.08,0,0,1,12.88-2.37L879.8,96.3l-20.94,6.42a9.56,9.56,0,0,1-8.93-1.81Z"/><path class="cls-5" d="M847,110.47l5.88-5.79-5.17-3.16a10.41,10.41,0,0,0-10.89,0l-5.17,3.16,5.88,5.79A6.74,6.74,0,0,0,847,110.47Z"/><path class="cls-5" d="M841.63,119l-7-6.93a12.06,12.06,0,0,0-11.07-3.17l-19.43,4.34,20.32,9.55a12.24,12.24,0,0,0,11.2-.4Z"/><path class="cls-5" d="M843.35,119l7-6.93a12.06,12.06,0,0,1,11.07-3.17l19.43,4.34-20.33,9.55a12.22,12.22,0,0,1-11.19-.4Z"/><path class="cls-5" d="M889.47,100.4l19.77,5.16-20.12,4.86a19.15,19.15,0,0,1-9,0L860,105.56l19.78-5.16A19,19,0,0,1,889.47,100.4Z"/><path class="cls-5" d="M912.75,89.5,895,93.1a12,12,0,0,1-8.68-1.57l-1.72-1.07,6.74-5.06a10.93,10.93,0,0,1,11.61-1Z"/><path class="cls-5" d="M856.52,89.5l17.72,3.6a12,12,0,0,0,8.68-1.57l1.72-1.07L877.9,85.4a10.94,10.94,0,0,0-11.62-1Z"/><path class="cls-5" d="M909.24,72.34,893.71,80.1a20.74,20.74,0,0,1-18.55,0l-15.53-7.76,15.11-8a20.74,20.74,0,0,1,19.4,0Z"/><path class="cls-5" d="M834.28,141.72l-15.5-7.83,16.4-6a20.91,20.91,0,0,1,14.46,0l16.15,6-15.27,7.79A17.94,17.94,0,0,1,834.28,141.72Z"/><path class="cls-5" d="M918.33,140.45l-15.49-7.83,16.39-6a20.91,20.91,0,0,1,14.46,0l16.15,6-15.27,7.8A17.94,17.94,0,0,1,918.33,140.45Z"/><path class="cls-5" d="M839.91,148.49l-2.38-1.73a18.05,18.05,0,0,0-12.89-2.37l-20.1,3.83,20.93,6.42a9.58,9.58,0,0,0,8.94-1.82Z"/><path class="cls-5" d="M912.52,141.42,894.81,145a11.94,11.94,0,0,1-8.69-1.56l-1.71-1.07,6.73-5.06a11,11,0,0,1,11.62-1Z"/><path class="cls-5" d="M844.24,148.49l2.36-1.73a18.05,18.05,0,0,1,12.89-2.37l20.1,3.83-20.93,6.42a9.58,9.58,0,0,1-8.94-1.82Z"/><path class="cls-5" d="M891.05,152.32l19.78,5.16-20.12,4.86a19.15,19.15,0,0,1-9,0l-20.12-4.86,19.77-5.16A19,19,0,0,1,891.05,152.32Z"/><path class="cls-5" d="M857,141.42,874.69,145a11.91,11.91,0,0,0,8.68-1.56l1.72-1.07-6.73-5.06a11,11,0,0,0-11.62-1Z"/><path class="cls-5" d="M909.85,126.52l-15.53,7.76a20.74,20.74,0,0,1-18.55,0l-15.53-7.76,15.11-8a20.72,20.72,0,0,1,19.39,0Z"/><path class="cls-5" d="M863.6,176.5l11.11-5.87a20.72,20.72,0,0,1,19.39,0l11.12,5.87"/><path class="cls-5" d="M846.81,162.39l5.89-5.79-5.18-3.17a10.45,10.45,0,0,0-10.89,0l-5.17,3.17,5.89,5.79A6.73,6.73,0,0,0,846.81,162.39Z"/><path class="cls-5" d="M841.43,170.94l-7-6.93a12,12,0,0,0-11.07-3.17l-19.43,4.34,20.33,9.55a12.22,12.22,0,0,0,11.19-.41Z"/><path class="cls-5" d="M843.15,170.94l7-6.93a12,12,0,0,1,11.07-3.17l19.43,4.34-20.33,9.55a12.22,12.22,0,0,1-11.19-.41Z"/></g></g></g><g id="Text"><text class="cls-12" transform="translate(183.29 459.81)">gusano</text><text class="cls-13" transform="translate(177.29 528.04)">NET WT 1 OZ (28g)</text><text class="cls-14" transform="translate(194.2 486.7)"><tspan class="cls-15">ROJO</tspan><tspan class="cls-16"><tspan x="-2.21" y="12">chili peppers</tspan></tspan></text><text class="cls-12" transform="translate(582.29 459.81)">gusano</text><text class="cls-13" transform="translate(576.29 528.04)">NET WT 1 OZ (28g)</text><text class="cls-17" transform="translate(583.78 486.7)"><tspan class="cls-15">CLSICO</tspan><tspan class="cls-18"><tspan x="2.99" y="12">flor blanca salt</tspan></tspan></text><text class="cls-12" transform="translate(981.29 459.81)">gusano</text><text class="cls-13" transform="translate(975.29 528.04)">NET WT 1 OZ (28g)</text><text class="cls-19" transform="translate(994.18 486.7)"><tspan class="cls-15">LIMA</tspan><tspan class="cls-16"><tspan x="-0.14" y="12">zetsy lime</tspan></tspan></text></g></svg>