<svg id="circle" xmlns="http://www.w3.org/2000/svg" viewBox="0 0 300 300"><defs><style>.cls-1{fill:none;stroke:#000;stroke-linecap:round;stroke-miterlimit:10;stroke-width:6px;}</style></defs><title>Artboard 2</title><path class="cls-1" d="M182.71,96.84c-4.51,27.2-22.19,55.06-43.22,55.06S111.7,129.55,111.7,102s32.47-55.06,53.5-55.06S187.19,69.79,182.71,96.84Z"/><path class="cls-1" d="M143.64,241.84s-54,33-56.77-32.51c0,0-3.21-57.43,28.38-78.47"/><path class="cls-1" d="M165,175.68c-1.08,5.77-12.67,8.44-25.88,6s-17.9-9.16-16.81-14.94,7.53-8.44,20.74-6S166.11,169.91,165,175.68Z"/><path class="cls-1" d="M181.87,238.8c10.5-40.53,2.13-53.91-6.54-60.22-14.5-10.55-31.69,39.28-31.69,39.28"/><path class="cls-1" d="M138.94,244.31s3.57,10.34,21.3,14c9.87,2.05,19.24-1.91,26.93-8.42,4.93-4.17,7.51-10.58-5.3-11.1"/><path class="cls-1" d="M186.53,181.68s11.29-32.76,19.7-10.49c0,0,6.47,20.15,4.37,60.05,0,0,19.45-2.18,15.69,9.31a16,16,0,0,1-6.32,8.13c-5.25,3.56-15.63,7.46-29.91-2"/><path d="M167.21,144.73c6.22-.06,12.43-.21,18.65-.17s13.19.34,18.27,4.24c2.35,1.81,5.13,4.32,1.26,7.85a11.72,11.72,0,0,1-2.9,1.44,51.29,51.29,0,0,1-9,3A52,52,0,0,1,184,162.5c-1.18.06-7.23.69-7.7-.16v2.53l1.87-.63c3.17-.32,3.21-5.32,0-5-2.61.27-4.64.9-6.19,3.1a2.52,2.52,0,0,0,0,2.53c2.94,5.34,15.67,2.49,20.31,1.6,6.23-1.2,18.91-3.84,20.05-11.61s-7.55-12.35-13.71-14c-10-2.64-21.24-1.25-31.44-1.15-3.21,0-3.22,5,0,5Z"/></svg>