<svg id="circle" xmlns="http://www.w3.org/2000/svg" viewBox="0 0 300 300"><defs><style>.cls-1{font-size:266.67px;font-family:AGaramondPro-Regular, Adobe Garamond Pro;}</style></defs><title>Artboard 1</title><path d="M143.11,236.56a24.52,24.52,0,0,0,17,0l19.24-7.05-18.19-9.18a21,21,0,0,0-19,0l-17.91,9.14Z"/><path d="M149.09,243.53l-21.63-8.69a8.69,8.69,0,0,0-7.16.29l-6.61,3.32,8.12,4.08a9.48,9.48,0,0,0,4.25,1Z"/><path d="M175.89,234.84l-21.63,8.69h23a9.48,9.48,0,0,0,4.25-1l8.12-4.08-6.61-3.32A8.69,8.69,0,0,0,175.89,234.84Z"/><path d="M149.21,245.71l-25,2.62,19.22,7.48a23,23,0,0,0,16.7,0l19.23-7.48-25-2.62A25.17,25.17,0,0,0,149.21,245.71Z"/><path d="M187.34,214.57l-20.84,4.31,18,10.76a15.12,15.12,0,0,0,18.56-2.42l5.18-5.3-6.79-4.57A18.61,18.61,0,0,0,187.34,214.57Z"/><path d="M137.28,218.88l-20.83-4.31a18.6,18.6,0,0,0-14.14,2.78l-6.79,4.57,5.18,5.3a15.1,15.1,0,0,0,18.55,2.42Z"/><path d="M172.2,215.74l23.59-4.5-24.56-7.53a11.2,11.2,0,0,0-10.48,2.13l-6.47,5.09,2.8,2A21.27,21.27,0,0,0,172.2,215.74Z"/><path d="M131.32,215.74A21.27,21.27,0,0,0,146.44,213l2.76-2-6.42-5.09a11.22,11.22,0,0,0-10.49-2.13l-24.56,7.53Z"/><path d="M139.28,201.41l6.07,3.71a12.24,12.24,0,0,0,12.78,0l6.07-3.71-6.91-6.8a7.91,7.91,0,0,0-11.1,0Z"/><path d="M191.2,195.4l-19.57,4.74,31.63,12a8.46,8.46,0,0,0,11.08-5.36l2.37-7.48-6.51-2.58A31.43,31.43,0,0,0,191.2,195.4Z"/><path d="M99.51,212.15l31.63-12-19.57-4.74a31.47,31.47,0,0,0-19,1.33l-6.5,2.58,2.37,7.48A8.46,8.46,0,0,0,99.51,212.15Z"/><path d="M196.56,191.34l-23.85-11.21a14.38,14.38,0,0,0-13.14.48l-7.06,4,8.27,8.13a14.13,14.13,0,0,0,13,3.72Z"/><path d="M106.44,191.34l22.8,5.09a14.14,14.14,0,0,0,13-3.72l8.27-8.13-7.07-4a14.36,14.36,0,0,0-13.13-.48Z"/><path d="M204.35,168.64l-17.47,1.92a82.43,82.43,0,0,0-14.84,3,.54.54,0,0,0-.06,1L216,194.22a.55.55,0,0,0,.76-.43l1.36-11.16A12.53,12.53,0,0,0,204.35,168.64Z"/><path d="M87.52,194.22l44.06-19.62a.54.54,0,0,0-.06-1h0a82.43,82.43,0,0,0-14.84-3l-17.47-1.92a12.54,12.54,0,0,0-13.82,14l1.37,11.16A.55.55,0,0,0,87.52,194.22Z"/><path d="M167,174.46l-11.19-5.58a9,9,0,0,0-7.92,0l-11.37,5.54L150,178.18a7.58,7.58,0,0,0,4.17,0Z"/><path d="M150.72,150.89c8.42,0,15.25-17.2,15.25-38.4a84.62,84.62,0,0,0-2.52-21.14h0l-12.69-56.8L138.37,90a83.1,83.1,0,0,0-2.9,22.53C135.47,133.69,142.3,150.89,150.72,150.89Z"/><path d="M57.51,79.72s7.76,77.46,45.92,84.58C142.3,171.54,57.51,79.72,57.51,79.72Z"/><path d="M201.59,164.3c38.16-7.12,45.92-84.58,45.92-84.58S162.72,171.54,201.59,164.3Z"/><path d="M133.37,164c11.82,11.16-32.7-120.91-32.7-120.91S105.79,138,133.37,164Z"/><path d="M166.41,164C194,138,199.1,43.12,199.1,43.12S154.59,175.19,166.41,164Z"/><text class="cls-1" transform="translate(87.82 510.34)">g</text></svg>