<svg id="circle" xmlns="http://www.w3.org/2000/svg" viewBox="0 0 300 300"><defs><style>.cls-1,.cls-2{fill:none;stroke:#231f20;stroke-linecap:round;stroke-linejoin:round;}.cls-1{stroke-width:2.78px;}.cls-2{stroke-width:3.71px;}</style></defs><title>Artboard 3</title><path class="cls-1" d="M158.79,54.65C181.84,73,181,104.72,180.71,114.08A83,83,0,0,1,178.13,133c-.26,1-1.11,2.68-1.34,3.72-.62,2.71-2.89,8.51-1.25,17.09a23.51,23.51,0,0,0,18.16,18.66"/><path class="cls-1" d="M69.21,176.91c1.94-.1,6-2,8.34-4.45a13.8,13.8,0,0,0,3.87-9.89,49.75,49.75,0,0,0-1.24-9.27A25.1,25.1,0,0,0,78,148.21c-4.75-8.1-6.51-18.21-6.51-18.21-.86-5.64-6.28-45.45,19.89-70.56,4.55-4.37,15.63-15,32.83-16.21C142.4,42,155.49,52,158.79,54.65"/><path class="cls-1" d="M191.12,203.39s-20.28-2.56-31.89,5.23c0,0-26,12-23,35.58"/><path class="cls-1" d="M80.57,221.52a37.4,37.4,0,0,1,25.86-2.42,38.06,38.06,0,0,1,7.39,2.85s17.06,7.08,16.72,21.51"/><circle class="cls-1" cx="128.64" cy="182.94" r="28.05"/><circle class="cls-1" cx="128.64" cy="182.94" r="28.05"/><circle class="cls-1" cx="129.11" cy="183.29" r="18.68"/><path class="cls-2" d="M241.88,246.41s13.84-20.65,18.37-63.18"/><path class="cls-1" d="M259.21,127.44c-23-15.11-44.78-6.77-44.78-6.77S180,166.86,194.8,243.94a3.94,3.94,0,0,0,2.27,2.86c5.83,2.61,24.41,9.31,44.81-.39"/><path class="cls-2" d="M260.25,183.23c4.44-40.32-1-55.79-1-55.79"/><path class="cls-2" d="M260.55,133.42c-9.27,13.93-20.26,68.37-14.49,105.16"/><path class="cls-1" d="M180.05,95.66s6.64-7.34,11.41-3.49,10.08,4,11.52,3.5"/><path class="cls-1" d="M180.78,109.82s8.94-8.89,14.42-4.23a13.09,13.09,0,0,0,11.39,3s-5.2-9.86-4.22-12.39"/><path class="cls-1" d="M180.33,120.32s12.17,8.32,14.61,13.36-10.42,28.76-14.47,30.7"/><path class="cls-1" d="M178.13,133s10.4,5.67,11,8.19c.29,1.23-1.35,6.3-3.36,11.21-2.13,5.22-4.7,11.32-5.78,11.4"/><path class="cls-1" d="M176.52,157.37s8.55-.07,10.29-7.71"/><ellipse class="cls-1" cx="133.18" cy="246.95" rx="4.69" ry="3.94" transform="translate(-115.74 376.43) rotate(-89.14)"/><ellipse class="cls-1" cx="90.86" cy="119.9" rx="30.21" ry="19.03" transform="matrix(0.08, -1, 1, 0.08, -35.6, 201.38)"/><ellipse class="cls-1" cx="159.95" cy="113.39" rx="19.1" ry="27.89" transform="translate(-2.06 2.96) rotate(-1.05)"/><path class="cls-1" d="M102.86,150c9.49-13.72,6.7-38.51,6.7-38.51"/><path class="cls-1" d="M144,127.76c3.68,13.39,16.73,18.32,16.73,18.32s4.93.73,6.39-.89c0,0-17.15.94-25-22.15"/><path class="cls-1" d="M78.28,223.16c-4.65,1.05-10.77-8.44-13.67-21.22s-1.48-24,3.17-25,10.76,8.44,13.66,21.21,1.49,24-3.16,25"/><path class="cls-1" d="M74,213.57c-2.81.64-6.44-4.76-8.09-12s-.72-13.73,2.09-14.37,6.44,4.76,8.1,12,.72,13.73-2.1,14.37"/><path class="cls-1" d="M78.74,171s-17.49,7.07-25.47,2.79c0,0,.16.54.51,1.44a34.09,34.09,0,0,0,9.34,13.29"/><path class="cls-1" d="M53.05,173c-1.52,5-1,26.11-1,26.11s4.65,3.3,6.67,6.19,8.41,9.41,10.4,9.62"/><path class="cls-1" d="M74.55,140.85s-3.66,30.49-14.82,34.34"/><path class="cls-1" d="M81,157.78s-1.87,12.63-4.56,14.09"/><path class="cls-1" d="M148.8,153.11c-12.32-3.43-21-15.63-21-15.63s-1.91,9.53-8.18,13.72L108.57,158c17.75-10.71,19.86-27.58,19.86-27.58"/><path class="cls-1" d="M127.8,133.3s-.2,5,1,7.19a41.7,41.7,0,0,0,6.83,8.6l12,3.69"/><path class="cls-1" d="M128.85,140.49c.08,3.21-3.9,8.73-3.9,8.73s-3,.29-4.16,1.14"/><path class="cls-1" d="M162.46,170.8a45.4,45.4,0,0,1,.94,13.08c-.25,4.51.69,6.75-5.47,17.58,0,0-6.9,5.82-9.38,6.69,0,0,15.69-11.18,13.91-37.35"/><path class="cls-1" d="M102.13,203.05c-12-20.27-1.42-35.48-1.42-35.48s-11.88,13.73-4.18,31.3Z"/><path class="cls-1" d="M137.6,212.93c-12.23,3.34-29.1-5.13-29.1-5.13a96.72,96.72,0,0,0,11.09,5.85c4,1.77,7.6,8.09,7.6,8.09a18.86,18.86,0,0,1,2.35,5.5,17.39,17.39,0,0,1,8.06-14.31"/><path class="cls-1" d="M87.38,208C85.2,188.16,77,178.68,77,178.68S87.25,202.91,87.38,208"/><path class="cls-1" d="M89.25,214.2a21.33,21.33,0,0,0-.42-14.58s1.52,8.26.42,14.58"/><line class="cls-1" x1="132.06" y1="183.18" x2="144.08" y2="194.46"/><line class="cls-1" x1="117" y1="169.06" x2="128.97" y2="180.29"/><line class="cls-1" x1="129.11" y1="186.33" x2="141.04" y2="197.65"/><line class="cls-1" x1="114.13" y1="172.12" x2="125.99" y2="183.37"/><line class="cls-1" x1="125.99" y1="183.37" x2="114.8" y2="195.29"/><line class="cls-1" x1="140.27" y1="168.31" x2="128.97" y2="180.29"/><line class="cls-1" x1="129.11" y1="186.33" x2="117.94" y2="198.27"/><line class="cls-1" x1="143.31" y1="171.16" x2="132.06" y2="183.18"/><path class="cls-1" d="M120.4,189.33a10.38,10.38,0,0,1-.21-11.46"/><path class="cls-1" d="M135.46,192.35a10.43,10.43,0,0,1-11.91,0"/><path class="cls-1" d="M138,176.87a10.88,10.88,0,0,1,.57,12.3"/><path class="cls-1" d="M123.09,174.5a10.54,10.54,0,0,1,11.75-.43"/><path class="cls-1" d="M121.55,173.33c4.79-3.55,10.66-3.42,14.51-.55"/><path class="cls-1" d="M139.17,175.59a12.8,12.8,0,0,1,.54,14.77"/><path class="cls-1" d="M119.3,190.5c-2.83-3.16-3.4-9.38-.32-13.78"/><path class="cls-1" d="M136.84,193.66c-3.49,3-10.19,3.06-14.44-.16"/><path class="cls-1" d="M193,172.24l-1.24,1.4s-5.27,12.78-3.39,26.34l1,3.23"/><path class="cls-1" d="M185.58,190.4c-.65-11.89,3.83-19.36,3.83-19.36"/><path class="cls-1" d="M183.22,203c-1.47-3.19-.92-11-.92-11s1.42,8.49,2.81,11"/><path class="cls-1" d="M126,147.78s5.07-3.73,6.61-2"/><path class="cls-1" d="M133.25,242.26s-6.06-20.52-26.82-23.16"/><path class="cls-1" d="M161.42,168.28s-.95-3.47-5.68-5.29Z"/><path class="cls-1" d="M191.07,171.67s-3.41,6.34-5.49,18.73"/><path class="cls-1" d="M60.17,185.68s.48,19.08,4.75,26.28"/><path class="cls-1" d="M109.27,125.89A67.12,67.12,0,0,1,99.08,152a16.15,16.15,0,0,0,3.78-2"/><path class="cls-1" d="M141.09,117.5s2.65,21.95,15.79,28.67c0,0-10,1.47-15.59-27.38"/><path class="cls-1" d="M176.5,127.67s-3.25,13.81-16,13.61"/><path class="cls-1" d="M104,140.25s-15.27,24.78-28.5-.66"/><path class="cls-1" d="M80.18,153.3s-3.66,19.39-13.4,21.19"/><path class="cls-1" d="M176.79,136.67s-12.78,26.49-5.24,35.66-14,39.16-28,47"/></svg>