<svg id="circle" xmlns="http://www.w3.org/2000/svg" viewBox="0 0 300 300"><defs><style>.cls-1{fill:#202020;}</style></defs><title>Artboard 5</title><path class="cls-1" d="M94.63,212.73l.87.31C95.48,212.88,95.26,212.75,94.63,212.73Z"/><path class="cls-1" d="M238,143.75a2,2,0,0,0-.09-.2C238,143.69,238,143.73,238,143.75Z"/><path class="cls-1" d="M128.5,223.1h0c-.07,0-.16.06-.22.1Z"/><path class="cls-1" d="M84.67,224c11.51-.06,14.62,1.44,26.51.27,5.68-.12,11.73-.75,17.28-1.19,2.58-1.38,7.29-.33,10.36-1.53l1.24.67a5.37,5.37,0,0,1,3.41-.37l-.06.22c1.58-.62,3.41-.37,4.19-.68l0,.21,1.94-.17-.32.31a27.16,27.16,0,0,1,8.21-.7l-.25-.87c5.48.75,7.39-1.15,12.35-.2l-.06.21c6.11-2.57,9.88,1.15,16.18-1.31-.79.31.36.43.3.65,2.93-.38,6.07-.64,6-2.36,2.14-.07,1.77.46,2.07,1.11,0-.75,1.81-1.14,3.48-1.26l-.76.32,4.79-.46-1-1.38c2.56.3.72,1.71,3.14,1.26l-.08-1.18c3.53.08,5.68,1.78,9.12,2.5,4.58,0,9.26-.44,13.93-.92l7-.74,3.48-.34,1.73-.16,2.57-.17a12.2,12.2,0,0,0,5.48-1.57,11,11,0,0,0,3.89-4,10.28,10.28,0,0,0,1.39-5.26c0-.9,0-1.79,0-2.68v-1.36l0-.52,0-.44.82-.67c1.26-.38-2.28-3.38-1.14-4l-.73-1.46c.18-.45.34-1.37.7-.64a4.28,4.28,0,0,0-.78-2.4l.66-1.58c.12-5.58-1.8-10.16-1.92-16,1.1-7.13-1.18-20.24-2.38-27.84-2.43-10.67,2.3-23.33-.11-34.25a1.5,1.5,0,0,0-.4-1.27l0-10.07s0-3-.14-7a119.69,119.69,0,0,0-1-12.73c-1.18-7.56-3.74-10.59-9.14,8.07l-.28-.25c-.64,5.55-.8,9.06.67,12.87-1.73.63-.11,4.56-.66,5.87l-.14-.12c1.37,3.36-1,7,.28,10.24a1,1,0,0,1-.66-.93c.27,2.37.73,5.62-.28,5.82.43,5.68.22,13.63,2,17.21l-.29-.24c1.17,2,.25,2.68.92,5-.13.13-.19.3-.24.28,1.18,2.21.46,6.58,1,8.38l-.67.15.4,4.49.06-1.69c1.88.48-1,3.47.41,6.66,0,3.07,4.21,5.93,3.54,9.15,1,1.44-1.49-1.23-.67,1-1,.15-.68-1-1.4-.37.6,2.18-.73,3.7.13,6.39l-.74.17c1.63,3.45-.44,6.81,1.06,9.07,1,3.62-2,2.67-.17,6.37l-.87,1.59c0,1.65,1.36,1,1,2.91-.65,0-.26,2.36-1,1.36a8.25,8.25,0,0,0-.06,1.57,7.08,7.08,0,0,0,.13,1.24,9,9,0,0,0,.48,1.14.91.91,0,0,1,0,1,.85.85,0,0,1-1.17,0c.25.71-.09.81-.38.91a1.12,1.12,0,0,0-.34.18.46.46,0,0,0-.07.07l-.22.1a1.17,1.17,0,0,0-.35.27c-.16-.53-5.45.15-2.45-1.16.26-.11.73-.11.7.1l.34-.75c-3.14-1.26-5.57,1-8.63.92.92.21,2.12.09,1.34.63l-2.84,0,.56-.64-4.23-.18.61.74c-2.08-.31-2.86-1.58-5.14-.39-1,.65,2,.95-.17,1.28a93.51,93.51,0,0,0-10.49-1.09c.37.85-.58.86-1.55,1.08l-.14-.75c-3.7,1.2-1.45-1.59-5.12-.6l.3-.54-.91,1.61c-3.28,1.63-1.87-1.48-5.51.71,1.47-.19.77,1.62-1.06,1.38l.43-.75c-1,.2-1.32.51-2,.39.58-.41.27-1.06-1.2-.88L192,206l-2.73,1.45c-2.18-.69-5.55.43-6.47-.55,0,0-4.65-.3-5.66.86.9-.73-1.67-.89-1-1.73-1.17.83-4.68,1.63-6.13.85l.26-.1c-5.28-.63-8.91,1.55-13.66.71.26.86-2.25.5-1.59,1.58-4.82,1.31-9-1.88-10.57,1.64-2.21.28-2.66-.7-3.81-.83l.52-.2a72.77,72.77,0,0,1-8.42.6c-1.53.4-1.7,2-4.47,1.74.86-.68-.26-.51-1.29-.47.65-.12.85-.37-.52-.73a2.14,2.14,0,0,1-.75.45s-.06-.09,0-.16c-1.71.3-1.4.48-.6.54,0,.1,0,.22.29.38-1.82-.74-5,.27-5.24-.81-5.16.47-8.81,1.76-13.09,2.37-.51-.54.48-1.08,1.72-1.35l-3,.33c0-.81,1.73-.54,2.67-.74-3.69-1.15-7.44,1.62-11.76.61l-.85.68-.26-.1c0,.34-.91.84-1.54,1-.63-.67,0-1.62-2.13-1.49-1.7-.6-4.73.55-6.9,1,1.18.07.82.47.32.74-1,.07-1.69-.6-2.49-.27l-.14-.94c.45.87-2.72,1.08-3.09,1.49-.63-.68,1.61-.68,1.85-1.22l-6.34.4c-2.23.82.45.88-.6,1.76-2,.27-3.9,1-6.21.54l.76.81c-3.72.82-6,.82-8.52.07C32.86,225,55,226.55,55,226.55,66.05,227.94,71.62,225.24,84.67,224Z"/><path class="cls-1" d="M231.84,103.81l-.54.24C231.44,104.12,231.62,104.09,231.84,103.81Z"/><path class="cls-1" d="M172.3,107.53l-.11-.08C172.24,107.52,172.27,107.53,172.3,107.53Z"/><path class="cls-1" d="M212.34,114v0s0-.1,0-.15Z"/><path class="cls-1" d="M225.32,93.37c-3.56,5.32-5.82,6-8.55,12a96.17,96.17,0,0,0-4.42,8.55c.38,1.91-2,3.52-1.94,5.56l-1,.22a1.76,1.76,0,0,1-.76,1.75l-.16-.13c0,1-.76,1.75-.74,2.27l-.17-.13-.46,1-.17-.31a8.56,8.56,0,0,1-2,4.14l.81.33c-2.35,2.13-1.33,4-3.7,5.78l-.16-.14c.14,2.07-.89,3.06-1.93,4.05a8.22,8.22,0,0,0-1.43,1.62l-.14.24a.2.2,0,0,0,0,.07.45.45,0,0,0,0,.19c0,.15.13.35.26.67-.14-.31-.36-.28-.5-.45a5.31,5.31,0,0,0,.69,3c-.3.48-.48-.24-.81-1a3,3,0,0,1,.14,1.87,1.63,1.63,0,0,1-.1.29v-.57l-.53,1.44q.19,1.06.45,2.07c-.53.1-.45-2.7-.73-1.53l.15,2.1c-.32.32-.58-.23-.74-1.12-.08-.44-.14-1-.19-1.47a11.61,11.61,0,0,0-.15-1.47c-.16-.07-.18-.28-.22-.41a1.75,1.75,0,0,0-.13-.33,1.42,1.42,0,0,0-.35-.44,7.35,7.35,0,0,1-1.05-1,5.71,5.71,0,0,1-.59-.87c-.09-.16-.18-.34-.26-.52l-.11-.28-.23-.63a21.5,21.5,0,0,1-1.17-5.61l.73-.59c1.17-.56-2.47-1.28-1.43-1.94l-.84-.61c.14-.3.2-.86.62-.55-.21-.76-.42-.71-1-1.12l.48-1.06c-.43-3.14-2.76-5.13-3.54-8.32.25-4.25-3.61-10.74-5.84-14.48-3.79-5-1.23-13.29-5.33-18.36.1-.24-.46-.6-.59-.54l-1.68-5.36s-8.49-25.87-11.8-2.82l-.31,0c.37,3.13.86,5,2.9,6.54-1.53.89.66,2.44.37,3.31l-.16,0c1.88,1.33.22,4,1.95,5.32-.16,0-.62.1-.78-.28.64,1.17,1.59,2.74.67,3.17C168,99.3,169,103.6,171.22,105l-.31,0c1.4.72.64,1.35,1.58,2.38-.1.11-.13.22-.19.22,1.43.83,1.36,3.39,2.13,4.19l-.62.29,1,2.3-.17-.93c1.85-.3-.47,2.16,1.25,3.47.34,1.67,4.75,2,4.48,3.93,1.09.51-1.57-.23-.53.73-.9.35-.76-.35-1.38.2.83,1-.27,2.23.84,3.45l-.68.3c1.94,1.42.29,3.85,2,4.66,1.26,1.72-1.65,2,.43,3.55l-.68,1.11c.14.91,1.38.2,1.25,1.32-.62.15-.06,1.37-.83,1-.09,1.24.62,2.22,1.29,3.31a7.75,7.75,0,0,1,.85,1.76,4.91,4.91,0,0,1,.19,1,5.42,5.42,0,0,1,0,.57l0,.3,0,.53a3.46,3.46,0,0,1,1.56,1.92c.36.78.69,1.56,1.2,1.62-.41.46,1.6,4.84-.26,3.08-.16-.17-.3-.62-.12-.75-.24.08-.47.15-.71.21a7,7,0,0,0,1.35,4.39,10.31,10.31,0,0,1,1.93,3.26c-.18-1.1-.58-2.15,0-2,.14.44.27.9.43,1.29l.23.62c.08.19.17.35.26.53l-.59.43a17,17,0,0,0,.79,1.65l.43.73.43.6.08-1.33a7.56,7.56,0,0,1,.4,1.19,8.72,8.72,0,0,0,.31,1,1.22,1.22,0,0,0,.46.62.77.77,0,0,0,.71-.16c.55-.45-.44-1.9.41-1.54.22.4.44.76.69,1.13l.39.55a2.25,2.25,0,0,0,.44.49,2.81,2.81,0,0,0,.92.36c.35.07.54.08.68.1a7.23,7.23,0,0,0,1,0c-.11-1,.24-1.08.66-1.54l.06.94c.78-1,1-.66,1.2-.11s.42,1.19,1.39-.08l-.09.87c.1-.88.18-1.71.25-2.65a4.48,4.48,0,0,1,.73-1.4.38.38,0,0,1,.51-.13c.16,0,.31.18.48.08a1.94,1.94,0,0,0,.57-1,17.67,17.67,0,0,0,.4-1.85c-.66,1.4-.95-1.66-.06-2.56l.11,1.26c.4-1,.4-1.6.77-1.95-.08.92.37,1.48,1,.09,0,.6,0,1.22,0,1.85.25-1.32.46-2.58.63-3.76a8.4,8.4,0,0,0,1.95-2.75c.58-1,1.09-1.9,1.72-2l.42-.6.42-.65c.09-.14.18-.28.27-.44a2.06,2.06,0,0,0,.27-1.93c.34.8,1.28-.3,1.78.46-.35-1,.08-3,1.2-3.26v.18c2.19-2.1,1.47-4.9,3.67-6.65-.81-.33.29-1.29-.85-1.55.4-2.89,4.43-3.14,1.93-5.71.46-1.16,1.43-.86,1.9-1.32v.34a21.86,21.86,0,0,1,2.14-4.17c.13-.91-1.19-1.82-.09-3,.31.75.52.15.8-.35-.09.37.05.58.8.14a1.13,1.13,0,0,1-.15-.57s.09,0,.14.06c.28-.94,0-.9-.27-.56a.54.54,0,0,0-.42-.06c1.21-.45,1.34-2.43,2.34-2,1.22-2.61,1.27-5,2.09-7.24.62,0,.78.78.62,1.49l.67-1.57c.69.41-.09,1.07-.21,1.61,2.14-1.1.95-4.26,3.17-5.72l-.3-.74.16-.07c-.3-.16-.43-.85-.35-1.21.78.06,1.39.83,1.94-.21,1.05-.47,1-2.45,1.3-3.7-.43.51-.66.13-.74-.23.28-.52,1.05-.47,1-1l.85.43c-.89-.25-.07-1.81-.3-2.2.78.07.07,1.1.46,1.49l1.64-3.12c0-1.45-.89-.26-1.31-1.19.39-1,.36-2.32,1.49-3.14l-.93-.07c.47-2.13,1.18-3.16,2.62-4,1.79-16.86-6.5-7.51-6.5-7.51C227.83,82.79,228.38,86.74,225.32,93.37Z"/><path class="cls-1" d="M100.59,108.26l-.13.63C100.61,108.82,100.69,108.64,100.59,108.26Z"/><path class="cls-1" d="M145.36,117.05s0-.1,0-.15S145.34,117,145.36,117.05Z"/><path class="cls-1" d="M97.21,131.87v0l-.14-.1Z"/><path class="cls-1" d="M88.11,106.23c2.23,6.79,1.4,9.15,4.73,15.79,1.18,3.32,2.91,6.69,4.36,9.82,1.78,1,1.68,4.2,3.38,5.61l-.4,1a2.13,2.13,0,0,1,1,1.89l-.21,0c.87.72,1,1.89,1.42,2.25l-.21,0,.53,1.09-.36-.09a10.75,10.75,0,0,1,2.21,4.63l.76-.45c.33,3.5,2.47,4,2.51,7.24l-.21,0c1.78,1.37,2,2.93,2.16,4.51a12.91,12.91,0,0,0,3,6.9c-.52-.57-.21.69-.4.8,1.38,2.81,2.71,5.82,3.72,3.7.72,1.9.31,2.25.06,3.41.2-.52.5-.43.84-.12a5.5,5.5,0,0,1,.54.6,6.76,6.76,0,0,1,.54.72,3.73,3.73,0,0,1-.44-.08,12.75,12.75,0,0,0,2,2.2c0-.83,0-1.66,0-2.53a4.6,4.6,0,0,1,.3,2.17c0,.54,0,1,.46,1.18l.21-1.63a20.74,20.74,0,0,1,1.31,3.18l.29.78c.12.24.14.52.45.68s.4.19.54.27l.41.18c.31-.12.68-.3,1-.47s.75-.46,1.13-.71a11.91,11.91,0,0,0,2.59-2.71,27.31,27.31,0,0,0,2.35-5.21c.71-1.81,1.42-3.63,2.12-5.44s1.37-3.45,2.05-5.1l.81-1.94c.22-.51.44-1,.67-1.5a26.77,26.77,0,0,1,3.31-5.45l1,0c1.24.39-.8-2.85.42-2.64l-.14-1.11c.32-.14.78-.55.85,0,.41-.78.23-.89.14-1.63l1.12-.52c2-2.9,1.84-6.22,3.65-9.41,3.32-3.31,5.4-11.44,6.59-16.14,1-6.88,9-11.81,9.81-19,.26-.13.12-.83,0-.88l2.78-5.62s13.13-27.42-6.23-10.9l-.19-.26c-2.06,2.83-3.1,4.73-2.79,7.47-1.74-.38-1.34,2.49-2.19,3l-.1-.13c.34,2.46-2.8,3.45-2.56,5.79-.09-.13-.51-.37-.34-.81-.41,1.43-.9,3.42-1.87,3.1-1.22,3.3-3.69,7.56-3.16,10.28l-.19-.26c.45,1.62-.55,1.57-.64,3.11-.16,0-.26.08-.3,0,.39,1.72-1.55,3.77-1.61,5l-.64-.21-1,2.59.57-.88c1.53,1.09-1.93,1.42-1.69,3.76-1,1.61,1.89,5.08.25,6.48.4,1.21-.93-1.33-.91.21-.89-.36-.27-.84-1.12-.84-.16,1.44-1.83,1.64-1.95,3.45l-.71-.25c.32,2.58-2.63,3.37-2.06,5.25-.39,2.33-2.66.46-2.32,3.23l-1.3.41c-.57.86.82,1.18-.09,2-.55-.33-1.06,1.08-1.33.23-2,1.89-.87,5.29-3.81,7.63a1.89,1.89,0,0,1,.12,1.75.84.84,0,0,0,.33.73c-.24-.14-.38.11-.54.22s-.31,0-.66-.65c-.06-.1,0-.14.15,0q-.28-.28-.57-.54c-.6-.35-.44-.24-.27.2s.38,1.15.23,1.22c.17.2.23-.07.46.64l-.27.34-.26-.91A.6.6,0,0,1,124,158l.31,1.16a4.58,4.58,0,0,1-.42-1.14c-.11-.35-.12-.44-.06.72a10,10,0,0,0,.19,1.44,2.43,2.43,0,0,1,.07,1.06,3.5,3.5,0,0,1-.48-1.06,5.68,5.68,0,0,1-.16-.62,1.24,1.24,0,0,1-.09-.38l0-.4c-.1,2.1-.15,1.9-.24,2.14l.13-1.71c-.19.94-.13,0,0-.95s.24-1.87.08-1.14l.17-1c-.17,1-.35,2-.55,2.88-.35,1.13-.26.31-.14-.27s.24-1-.36.28c.15,0-.74,2.64-.78,1.66l.43-.91c-.16,0-.36.33-.34,0,.27-.37.62-1.3.47-1.36.2-.31.39-.64.58-1a4.58,4.58,0,0,1-1,1.17c.18-.61.07-.75,0-.94s-.16-.39.24-.75a.65.65,0,0,0,0-.36.25.25,0,0,0-.08-.1,5.14,5.14,0,0,0-.32-.49,1.41,1.41,0,0,0-.84-.56c.86.28.53-1.29,1.45-1.17-1-.4-2.41-2.21-2-3.33l.15.12c-.4-3.34-3.13-4.75-3.24-7.84-.76.44-.89-1.17-1.78-.41-2.13-2.4.08-6-3.52-5.7-.68-1.21.15-1.81.06-2.53l.29.23A26.52,26.52,0,0,1,110,130c-.67-.76-2.21-.32-2.48-2.05.8.28.43-.32.2-.92.24.35.5.38.59-.56a1.2,1.2,0,0,1-.56-.29s.07-.07.14-.08c-.6-.91-.72-.66-.62-.17-.1,0-.2.1-.31.31.36-1.34-1.18-2.86-.22-3.38-1.41-2.9-3.3-4.62-4.68-6.95.41-.48,1.11-.08,1.59.56l-.88-1.69c.76-.28.83.84,1.19,1.33.39-2.58-2.92-3.85-2.77-6.75l-.8-.28,0-.18c-.31.13-1-.26-1.2-.58.52-.61,1.52-.57,1-1.78.25-1.21-1.4-2.61-2.25-3.73.16.72-.29.65-.64.45-.26-.61.25-1.21-.21-1.57l.86-.41c-.74.57-1.53-1.24-2-1.32.52-.61.94.72,1.49.68C96.48,98.22,97,99.42,96,97c-1.18-1-.74.57-1.76.25-.63-1.08-1.69-2-1.68-3.49l-.62.73c-1.46-1.93-1.88-3.26-1.66-5-12.75-13.58-10.06,0-10.06,0C81,96.55,84.52,98.92,88.11,106.23Z"/><path class="cls-1" d="M60.47,199.56l.43-.21A.34.34,0,0,0,60.47,199.56Z"/><path class="cls-1" d="M80.45,117.07a.47.47,0,0,0-.06-.09C80.4,117,80.42,117.06,80.45,117.07Z"/><path class="cls-1" d="M75.61,190.42h0a.39.39,0,0,0,.06.11Z"/><path class="cls-1" d="M69.55,206.82c1.79-4.23,3.75-4.9,4.53-9.64a48.35,48.35,0,0,0,1.53-6.75c-.93-1.36.8-2.79.13-4.27l.82-.27c-.24-.51-.34-1.06.15-1.37l.19.08c-.36-.76.15-1.37,0-1.75l.19.08.12-.77.25.21a4.54,4.54,0,0,1,.52-3.25l-.86-.15c1.51-1.83,0-3.06,1.6-4.65l.2.08c-1.63-3,2.48-3.38,1-6.39.19.38.47,0,.67.06,0-1.2.23-2.44-1.44-2.87.23-.82.69-.54,1.37-.49-.74-.17-.86-1-.74-1.62l.21.37.19-1.91-1.47,0c.63-.88,1.75.16,1.63-.86l-1.14-.26c.54-1.3,2.46-1.68,3.62-2.8.9-2.68,1-5.66,1.14-8.55s.6-5.67,2.14-8l.91,0c1.29.17-1.58-1.8-.37-1.75l-.45-.72c.26-.12.57-.42.8-.07.16-.54,0-.59-.35-1.07l.91-.43c1.07-2.05-.07-4.2.68-6.43,2.15-2.43,1.67-7.91,1.33-11-.56-2.27.64-4.4,1.78-6.56s2.27-4.35,1.53-6.69c.2-.11-.15-.54-.29-.57l.81-3.93s.86-4.79.07-8c-.39-1.58-1.19-2.76-2.67-2.68s-3.63,1.34-6.81,4.54l-.26-.14c-1,2-1.36,3.35-.17,5-1.75,0-.45,1.72-1.09,2.13l-.13-.07c1.1,1.52-1.53,2.5-.56,4-.13-.07-.59-.18-.57-.47.07,1,.24,2.26-.77,2.16-.12,2.22-1.09,5.17.24,6.85l-.25-.15c.92,1,0,1.06.35,2-.14,0-.22.07-.27,0,.9,1.06-.3,2.56,0,3.34l-.67-.07-.16,1.75.26-.62c1.77.56-1.38,1.09-.45,2.56-.46,1.12,3.31,3.09,2.18,4.14.74.75-1.28-.78-.79.22-.95-.16-.52-.52-1.31-.45.28.94-1.24,1.21-.8,2.38l-.75-.1c1.09,1.63-1.49,2.37-.39,3.54.31,1.53-2.38.49-1.24,2.25l-1.11.36c-.29.59,1.12.71.5,1.3-.62-.18-.68.77-1.19.24-1.3,1.36.72,3.48-1.39,5.18,1.11.71.16,1.59,1,2.12-.54-.06-.55,2.06-1.44.64-.07-.12,0-.29.19-.23l-.69-.3c-1.62.87.28,2.29-.19,3.41.32-.29.35-.76.78-.34l-.34,1.05-.55-.36-.72,1.52.8,0c-.57.69-1.9.67-1.05,1.8.5.54,1.18-.51,1.22.37a16.54,16.54,0,0,0-2.44,3.61c.88.07.76.42.84.83l-.74-.13c.68,1.66-1.72.14-1.25,1.74l-.48-.25,1.44.74c1.13,1.62-1.67.32,0,2.21,0-.59,1.67.13,1.18.74l-.66-.35c0,.42.31.62.1.83-.32-.32-1-.37-1,.22l-.78-.6,1,1.38c-1,.62-.34,2.15-1.41,2.23,0,0-.93,1.62,0,2.3-.58-.52-1.09.38-1.81-.1.65.65.93,2.15,0,2.47l-.07-.13c-1.33,1.76.22,3.67-1.26,5.17.87.15.15,1,1.29,1,.56,2.12-3.09,2.73,0,4.31,0,.89-1,.77-1.33,1.15l-.12-.24A10,10,0,0,1,64,185.1c.16.67,1.66,1.2,1,2.13-.51-.52-.52-.06-.64.33,0-.28-.22-.42-.78,0a1,1,0,0,1,.32.4.5.5,0,0,1-.16,0c0,.71.25.65.42.37a.55.55,0,0,0,.41,0c-1,.44-.49,1.89-1.56,1.65-.34,2,.35,3.73.25,5.46a1.06,1.06,0,0,1-1-1l-.16,1.19c-.77-.25-.24-.79-.28-1.18-1.68,1,.35,3.17-1.3,4.39l.51.53-.14.06a1.24,1.24,0,0,1,.68.86c-.74,0-1.54-.51-1.75.29-.84.41-.24,1.86-.14,2.79.25-.4.58-.14.76.13-.11.4-.85.41-.66.8l-.91-.26c.9.13.59,1.33.91,1.6-.74,0-.38-.8-.85-1.06-.43,1.59-.2.8-.66,2.39.39,1.06.91.13,1.56.79-.08.8.29,1.73-.54,2.4h.89c.13,1.6-.25,2.4-1.38,3,1.44,6.32,3.43,7.7,5.1,7.45a5.45,5.45,0,0,0,3-2.12A7.91,7.91,0,0,0,69,213.24,55.31,55.31,0,0,1,69.55,206.82Z"/></svg>