<svg id="circle" xmlns="http://www.w3.org/2000/svg" viewBox="0 0 300 300"><title>Artboard 9</title><path d="M150.19,92.94a34.35,34.35,0,0,0-.17-11.4c-.38-2.06-1.05-5.59-.08-7.65,1.21-2.59,2-.79,2.47,1.42,1.18,5.67-2.72,17.08,4.67,20.21,6.71,2.85,14-2.78,18-7.62,2.87-3.48,5.29-7.31,8.24-10.74,2.43-2.8,5.28-5.07,6.27-8.76.63-2.33-3-3.32-3.62-1-1,3.88-5.41,7.09-7.84,10.2-2.95,3.76-5.41,8.09-9.08,11.23a13.64,13.64,0,0,1-7.88,3.56c-3.61.18-4.26-2.23-4.84-5.23-.86-4.51,1.14-9.1,0-13.38-1-3.68-4.89-9.39-8.59-4.8-1.85,2.29-2,6.36-2,9.15.09,4.78,1.43,8.91.77,13.8-.33,2.36,3.28,3.38,3.61,1Z"/><path d="M189.25,69.29c.77-5.34,3.1-9.81,1.63-15.28-1.34-4.93-4.7-9.16-6.61-13.88-.89-2.21-4.52-1.24-3.61,1a84.27,84.27,0,0,0,5,10c3.43,6.12.92,10.87,0,17.13-.34,2.36,3.28,3.38,3.62,1Z"/><path d="M184.19,39.58c-2-3.11-4.71-7.39-5-11.09l-1.88,1.87c5.92.39,9.61,9.21,16.49,5.91,2.29-1.11,4.06-3.54,5.57-5.52,2.46-3.21,5.41-4.41,8.4-6.82,1.88-1.52-.79-4.16-2.65-2.66s-4.15,1.47-5.86,3.29c-2,2.16-3.15,5.19-5.54,7-5.71,4.39-10.63-4.6-16.41-5a1.88,1.88,0,0,0-1.87,1.88c.37,4.5,3.14,9.26,5.53,13,1.3,2,4.54.14,3.24-1.9Z"/><path d="M207.37,24.22c-.64.37-.35-.14.31,0s1.83,0,2.19,1c.45,1.24-2.19,5.52-2.85,6.76-1.85,3.49-5.1,5.88-6.58,9.54-.91,2.23,2.72,3.21,3.61,1,1.37-3.36,4.83-5.9,6.5-9.23,1.25-2.48,3.24-6,3.21-8.82,0-4.38-5.07-5.36-8.28-3.5-2.09,1.21-.21,4.45,1.89,3.24Z"/><path d="M199.62,42.66a35.79,35.79,0,0,0-3.81,17.63c.1,2.41,3.85,2.42,3.75,0a31.76,31.76,0,0,1,3.3-15.74c1.07-2.15-2.16-4.06-3.24-1.89Z"/><path d="M195.78,61.4a17.68,17.68,0,0,1-2.09,6.79c-.84,1.67-1.75,3.08-1.58,5,.2,2.38,4,2.4,3.75,0-.17-2,1.63-4.14,2.3-6a19.22,19.22,0,0,0,1.37-5.83c.09-2.41-3.66-2.41-3.75,0Z"/><path d="M191.71,73.2a88.76,88.76,0,0,1-8.2,15.55c-1.36,2.1-2.24,4.45-3.55,6.56-.91,1.47-1.94,2.31-2.59,4-.88,2.26,2.75,3.23,3.61,1,.42-1.06,1.92-2.29,2.49-3.42A75.77,75.77,0,0,1,188.56,88c3-4.33,4.8-8.94,6.77-13.78.91-2.24-2.72-3.21-3.62-1Z"/><path d="M176.9,99.85c-4.48,6.53-5.66,15.73-6.2,23.48-.17,2.41,3.59,2.4,3.75,0,.49-7,1.64-15.68,5.69-21.59,1.37-2-1.88-3.87-3.24-1.89Z"/><path d="M170.55,123.93c-3.07,7.38-4.26,15.92-6.48,23.63-.67,2.32,3,3.32,3.62,1,2.22-7.72,3.4-16.25,6.47-23.63.93-2.23-2.7-3.2-3.61-1Z"/><path d="M163.82,149.61c-.57,5.31-1.81,9.71-.5,15.06a63.88,63.88,0,0,0,5.5,13.68c1.11,2.14,4.35.25,3.24-1.89a58,58,0,0,1-5.13-12.79c-1.17-4.92.12-9.2.64-14.06.25-2.39-3.5-2.37-3.75,0Z"/><path d="M168.63,178.56c2.74,3.73,3.69,8.46,4.82,12.89a60.75,60.75,0,0,1,2.19,15.27c0,2.42,3.74,2.42,3.75,0a65,65,0,0,0-2.32-16.27c-1.22-4.74-2.26-9.78-5.21-13.79-1.41-1.92-4.66,0-3.23,1.9Z"/><path d="M175.47,206.59a27.94,27.94,0,0,1-.88,10.8c-.83,2.78-2.38,5.4-2.32,8.38.06,2.52,1.21,4.42,2.5,6.52a26.45,26.45,0,0,1,3.43,10.54c.37,2.38,4,1.37,3.62-1a32.22,32.22,0,0,0-1.94-8c-1.55-3.6-4.47-6-3.47-10.38.63-2.8,2-5.34,2.55-8.21a31.11,31.11,0,0,0,.26-8.62c-.23-2.38-4-2.4-3.75,0Z"/><path d="M178.49,243.57c2.08,5,2.54,9.1,3.06,14.39.44,4.64,3.19,8.74,2.68,13.47-.27,2.4,3.49,2.38,3.75,0,.57-5.28-2.48-9.76-2.77-15a39.21,39.21,0,0,0-3.1-13.9c-.92-2.19-4.55-1.23-3.62,1Z"/><path d="M154.79,183.92c1.34,2.61.73,5.5,1,8.28.24,2.49,1.24,4.6,1.91,7,.72,2.58.47,5.31,1.19,7.87.9,3.19,2.25,5.73,2.06,9.19-.13,2.42,3.62,2.41,3.75,0a18.06,18.06,0,0,0-1.21-7.8c-1.29-3.37-1.13-6.83-2.18-10.25a34.55,34.55,0,0,1-1.84-9.7A13.81,13.81,0,0,0,158,182c-1.11-2.15-4.34-.25-3.24,1.89Z"/><path d="M161,217.7c1.19,3.79,2.81,7.68,3.57,11.59.74,3.73-.26,7.52.45,11.26,1.15,6.12,6.17,10.64,10.89,14.25,1.92,1.47,3.79-1.78,1.9-3.23a30.74,30.74,0,0,1-7.46-7.59c-2.27-3.63-1.74-7.34-1.74-11.37,0-5.46-2.37-10.77-4-15.91-.73-2.29-4.35-1.31-3.62,1Z"/><path d="M175.23,254.7c2.31,4.37,2.2,9.22,2.81,14,.34,2.71.7,6.79,2.86,8.77,2.53,2.33,7,.81,10.11,1.41,3.4.66,6,1.64,9.27-.08,2.14-1.13.24-4.37-1.89-3.24-2.93,1.55-6.86-.69-10-.76-2.13,0-4.06.8-5.56-1.58-.71-1.13-1-4.14-1.09-5.26-.65-5.29-.68-10.32-3.23-15.15-1.13-2.13-4.37-.24-3.24,1.89Z"/><path d="M155.36,177.92c0,2.36-2.55,5.82-3.33,8.17a42.25,42.25,0,0,1-5,10.48c-3.19,4.81-8.35,9.06-10.35,14.5-.84,2.27,2.79,3.25,3.61,1,1.25-3.39,4.56-6,6.71-8.89a73.54,73.54,0,0,0,6.08-9.2c1.42-2.66,2-5.52,3-8.31s3-4.69,3-7.75c0-2.42-3.73-2.42-3.75,0Z"/><path d="M136.6,211.57c.19,4.67,2.34,9.19,2.37,13.72,0,2.75-1.17,4.65-2.47,7-1.76,3.22-2.77,4.23-6.7,4.46-2.4.13-2.42,3.89,0,3.75s5.75-.44,7.86-2.1,2.62-4.86,3.71-7.19c3.18-6.83-.73-12.53-1-19.66-.1-2.41-3.85-2.42-3.75,0Z"/><path d="M128.08,237.28c-5.27,4.4-7.89,9.87-10.16,16.2-1.29,3.6-7.91,10.32-4.9,14.58,1.17,1.67,4.09,1.74,5.87,2.23s6.34,1,5.5,4.1-6.3.68-7.9.2c-7.28-2.17-13.38-1.14-20.55,1-2.31.68-1.33,4.3,1,3.61,4.92-1.45,9.91-2.95,15.09-1.95,3.43.67,6.41,2.63,10,2.11,4-.58,7.92-3.86,5.82-8.19-1.17-2.42-3.38-3.16-5.8-3.87a28.8,28.8,0,0,1-4.35-1.2c-1.92.1-2.2-.8-.85-2.73l1.5-2.38c4.49-7.23,5.47-15.27,12.37-21,1.86-1.54-.81-4.18-2.65-2.65Z"/><path d="M97.45,274.93c-1.07,1.19-1.14,1.35-.23.48.6-.55,1.22-1.08,1.85-1.59,1.05-.87,2.13-1.69,3.2-2.53a84.92,84.92,0,0,0,6.79-5.61,26.34,26.34,0,0,0,7.44-11.85c.66-2.32-3-3.31-3.62-1-2.7,9.51-11.66,13.58-18.32,19.92-3.58,3.41-.75,7.51,3.89,5.79,2.24-.83,1.27-4.46-1-3.62Z"/><path d="M116.38,253c-.08-3.92,2.43-7.61,3.35-11.4,1-4.12,1.33-8.38,2.17-12.54.79-3.91,2.47-7.36,3.67-11.13a53.47,53.47,0,0,0,1.86-11.6c.21-2.4-3.55-2.39-3.75,0-.77,8.87-4.59,16.39-6,25.08A79.11,79.11,0,0,1,115.44,243c-1.07,3.41-2.88,6.3-2.81,10,.06,2.41,3.81,2.42,3.75,0Z"/><path d="M127.24,207.76c.34-4.32,3.28-8.68,5.19-12.54,1.53-3.09,3.15-6.16,4.47-9.36a62.88,62.88,0,0,0,2.88-9.2c1-4.26,1.3-9.24,3.49-13.09,1.2-2.1-2-4-3.23-1.89-2.12,3.71-2.53,8.07-3.47,12.2a64.22,64.22,0,0,1-4.13,12.83c-3.05,6.65-8.37,13.64-9,21-.19,2.41,3.56,2.4,3.75,0Z"/><path d="M143.19,162.66c.47-4.38,2.64-8.46,2.76-12.89.09-3.3-1.35-5.87-2.65-8.79-1.86-4.18-2.47-8.74-4.2-13-1.65-4.07-3.65-8-5.08-12.16-.78-2.27-4.4-1.29-3.62,1,1.13,3.28,2.56,6.39,3.95,9.56,1.9,4.32,2.82,8.63,4.29,13.06,1.35,4.05,3.87,7.19,3.35,11.68-.45,3.92-2.12,7.58-2.55,11.54-.26,2.4,3.49,2.38,3.75,0Z"/><path d="M127.86,109.57c2.62,4.93,2.5,10.6,2.47,16a104.12,104.12,0,0,1-1.4,16.82c-.39,2.37,3.22,3.38,3.62,1,1.83-10.9,4-25.56-1.45-35.75-1.13-2.13-4.37-.24-3.24,1.89Z"/><path d="M128.38,143.6l-.06,16.08c0,2.67.41,5.86,0,8.51-.34,2-1.1,4-3.54,4.81,0,0-2.33-.28-2.71-.27a24.43,24.43,0,0,0-5.71,1.27c-3.16.83-5.47.35-8.64-.08-1.11-.15-5.85.21-5.82-.18s6.23.17,7.18.16c3.29-.06,8.57-.17,11.28-2.16,2.5-1.83,3.49-5.58,3.83-8.53.59-5.07,2.23-10.4,1.85-15.53-.42-5.48-2.52-10.71-1.72-16.26.34-2.36-3.27-3.38-3.62-1-.9,6.32,1.41,11.85,1.63,18.09.12,3.3-1,6-1.49,9.18-.62,4.05.36,9.53-4.09,11.4-3.29,1.39-7.85,1.21-11.34.93-2.38-.19-5-1-7.15.57a3.84,3.84,0,0,0-.16,6.23c1.91,1.48,4.31.81,6.51.74,3.13-.1,6.08,1.17,9.23.85,2.84-.28,5.36-1.72,8.23-1.73,2.3,0,4.62,1.29,6.86.28,3.89-1.76,3.14-7.25,3.15-10.66l.09-22.7c0-2.41-3.74-2.42-3.75,0Z"/><path d="M124.54,130.58c-.5-4.76-.88-9.55-1.57-14.28-.86-5.86-5-12,1.58-15.93,8-4.72,17.83-1,25.15-6.87,1.88-1.51-.79-4.15-2.65-2.65-5.18,4.14-12.45,1.8-18.43,3.59-3.63,1.08-8.4,3.2-10.57,6.48s-1,6.94-.07,10.37c1.73,6.29,2.12,12.82,2.81,19.29.25,2.37,4,2.4,3.75,0Z"/></svg>